mtllib model_4.mtl
o model_4
v 44.24766540527344 388.1445007324219 -52.7623405456543 
v 46.4912109375 284.53076171875 -43.788116455078125 
v -9.597593307495117 388.1445007324219 -75.19786834716797 
v -11.841145515441895 296.72064208984375 -68.46719360351562 
v 64.43963623046875 144.34754943847656 50.441104888916016 
v 46.4912109375 284.5307922363281 75.12016296386719 
v -7.35404109954834 135.20516967773438 79.60729217529297 
v -11.841145515441895 296.7206726074219 99.79922485351562 
v -70.17350769042969 305.863037109375 75.12015533447266 
v -61.19929885864258 388.1445007324219 52.68461608886719 
v -94.85257720947266 308.9104919433594 14.54423999786377 
v -83.63481903076172 388.1445007324219 1.0829133987426758 
v 133.98976135253906 1.1168245077133179 1.0829764604568481 
v 91.36225891113281 1.1168406009674072 99.79927825927734 
v 91.36225891113281 1.1168080568313599 -99.87687683105469 
v -9.597593307495117 1.1168475151062012 142.42677307128906 
v -9.597593307495117 1.116801142692566 -142.50437927246094 
v -110.55744934082031 1.1168406009674072 99.79927825927734 
v -110.55744934082031 1.1168080568313599 -99.87687683105469 
v -150.94139099121094 1.1168245077133179 1.0829764604568481 
v 71.1702880859375 281.48333740234375 14.544244766235352 
v 95.849365234375 162.63230895996094 -21.35257339477539 
v 46.4912109375 284.53076171875 -43.788116455078125 
v 64.43963623046875 183.96453857421875 -90.90269470214844 
v -9.597593307495117 388.1445007324219 -75.19786834716797 
v -11.841145515441895 296.72064208984375 -68.46719360351562 
v -61.19929885864258 388.1445007324219 -52.7623405456543 
v -70.17350769042969 305.8630065917969 -43.78812026977539 
v -81.39127349853516 183.96453857421875 -90.90269470214844 
v -110.55744934082031 1.1168080568313599 -99.87687683105469 
v -110.55744934082031 162.63230895996094 -21.35257339477539 
v -150.94139099121094 1.1168245077133179 1.0829764604568481 
v -81.39127349853516 144.34754943847656 50.441104888916016 
v -110.55744934082031 1.1168406009674072 99.79927825927734 
v -7.35404109954834 135.20516967773438 79.60729217529297 
v -9.597593307495117 1.1168475151062012 142.42677307128906 
v -9.597593307495117 1.116801142692566 -142.50437927246094 
v -7.35404109954834 190.0594482421875 -120.06887817382812 
v 91.36225891113281 1.1168080568313599 -99.87687683105469 
v 64.43963623046875 183.96453857421875 -90.90269470214844 
v -7.35404109954834 190.0594482421875 -120.06887817382812 
v -9.597593307495117 1.116801142692566 -142.50437927246094 
v -81.39127349853516 183.96453857421875 -90.90269470214844 
v -110.55744934082031 1.1168080568313599 -99.87687683105469 
v -110.55744934082031 1.1168406009674072 99.79927825927734 
v -81.39127349853516 144.34754943847656 50.441104888916016 
v -150.94139099121094 1.1168245077133179 1.0829764604568481 
v -110.55744934082031 162.63230895996094 -21.35257339477539 
v 91.36225891113281 1.1168406009674072 99.79927825927734 
v 64.43963623046875 144.34754943847656 50.441104888916016 
v -9.597593307495117 1.1168475151062012 142.42677307128906 
v -7.35404109954834 135.20516967773438 79.60729217529297 
v -70.17350769042969 305.8630065917969 -43.78812026977539 
v -81.39127349853516 183.96453857421875 -90.90269470214844 
v -94.85257720947266 308.9104919433594 14.54423999786377 
v -110.55744934082031 162.63230895996094 -21.35257339477539 
v -70.17350769042969 305.863037109375 75.12015533447266 
v -81.39127349853516 144.34754943847656 50.441104888916016 
v -11.841145515441895 296.7206726074219 99.79922485351562 
v -7.35404109954834 135.20516967773438 79.60729217529297 
v 46.4912109375 284.5307922363281 75.12016296386719 
v 64.43963623046875 144.34754943847656 50.441104888916016 
v 71.1702880859375 281.48333740234375 14.544244766235352 
v 95.849365234375 162.63230895996094 -21.35257339477539 
v 46.4912109375 284.53076171875 -43.788116455078125 
v 64.43963623046875 183.96453857421875 -90.90269470214844 
v -11.841145515441895 296.72064208984375 -68.46719360351562 
v -7.35404109954834 190.0594482421875 -120.06887817382812 
v -11.841145515441895 296.72064208984375 -68.46719360351562 
v -7.35404109954834 190.0594482421875 -120.06887817382812 
v -70.17350769042969 305.8630065917969 -43.78812026977539 
v -81.39127349853516 183.96453857421875 -90.90269470214844 
v -94.85257720947266 308.9104919433594 14.54423999786377 
v -110.55744934082031 162.63230895996094 -21.35257339477539 
v -70.17350769042969 305.863037109375 75.12015533447266 
v -81.39127349853516 144.34754943847656 50.441104888916016 
v 95.849365234375 162.63230895996094 -21.35257339477539 
v 133.98976135253906 1.1168245077133179 1.0829764604568481 
v 64.43963623046875 183.96453857421875 -90.90269470214844 
v 91.36225891113281 1.1168080568313599 -99.87687683105469 
v 133.98976135253906 1.1168245077133179 1.0829764604568481 
v 95.849365234375 162.63230895996094 -21.35257339477539 
v 91.36225891113281 1.1168406009674072 99.79927825927734 
v 64.43963623046875 144.34754943847656 50.441104888916016 
v -61.19929885864258 388.1445007324219 52.68461608886719 
v -70.17350769042969 305.863037109375 75.12015533447266 
v -9.597593307495117 388.1445007324219 75.1201400756836 
v -11.841145515441895 296.7206726074219 99.79922485351562 
v 46.4912109375 284.53076171875 -43.788116455078125 
v 44.24766540527344 388.1445007324219 -52.7623405456543 
v 71.1702880859375 281.48333740234375 14.544244766235352 
v 66.68318939208984 388.1445007324219 1.0829133987426758 
v -94.85257720947266 308.9104919433594 14.54423999786377 
v -83.63481903076172 388.1445007324219 1.0829133987426758 
v -70.17350769042969 305.8630065917969 -43.78812026977539 
v -61.19929885864258 388.1445007324219 -52.7623405456543 
v -9.597593307495117 388.1445007324219 75.1201400756836 
v -11.841145515441895 296.7206726074219 99.79922485351562 
v 44.24766540527344 388.1445007324219 52.68461608886719 
v 46.4912109375 284.5307922363281 75.12016296386719 
v 44.24766540527344 388.1445007324219 52.68461608886719 
v 46.4912109375 284.5307922363281 75.12016296386719 
v 66.68318939208984 388.1445007324219 1.0829133987426758 
v 71.1702880859375 281.48333740234375 14.544244766235352 
vn 0.0015416975365951657 -0.0002564605383668095 -0.0037369627971202135 
vn 0.0015416975365951657 -0.0002564605383668095 -0.0037369627971202135 
vn 0.0015416975365951657 -0.0002564605383668095 -0.0037369627971202135 
vn 0.0015416975365951657 -0.0002564605383668095 -0.0037369627971202135 
vn 0.0015132087282836437 -0.00046796840615570545 0.003728095907717943 
vn 0.0015132087282836437 -0.00046796840615570545 0.003728095907717943 
vn 0.0015132087282836437 -0.00046796840615570545 0.003728095907717943 
vn 0.0015132087282836437 -0.00046796840615570545 0.003728095907717943 
vn -0.0036567600909620523 0.0007999981753528118 0.001547773601487279 
vn -0.0036567600909620523 0.0007999981753528118 0.001547773601487279 
vn -0.0036567600909620523 0.0007999981753528118 0.001547773601487279 
vn -0.0036567600909620523 0.0007999981753528118 0.001547773601487279 
vn 8.37761112855418e-16 -0.004050616640597582 6.59930721180757e-10 
vn 8.37761112855418e-16 -0.004050616640597582 6.59930721180757e-10 
vn 8.37761112855418e-16 -0.004050616640597582 6.59930721180757e-10 
vn 8.37761112855418e-16 -0.004050616640597582 6.59930721180757e-10 
vn 8.37761112855418e-16 -0.004050616640597582 6.59930721180757e-10 
vn 8.37761112855418e-16 -0.004050616640597582 6.59930721180757e-10 
vn 8.37761112855418e-16 -0.004050616640597582 6.59930721180757e-10 
vn 8.37761112855418e-16 -0.004050616640597582 6.59930721180757e-10 
vn 0.003644876182079315 0.0011774194426834583 -0.0013175945496186614 
vn 0.003644876182079315 0.0011774194426834583 -0.0013175945496186614 
vn 0.003644876182079315 0.0011774194426834583 -0.0013175945496186614 
vn 0.003644876182079315 0.0011774194426834583 -0.0013175945496186614 
vn -0.0015854944940656424 -0.000185772092663683 -0.00372279342263937 
vn -0.0015854944940656424 -0.000185772092663683 -0.00372279342263937 
vn -0.0015854944940656424 -0.000185772092663683 -0.00372279342263937 
vn -0.0015854944940656424 -0.000185772092663683 -0.00372279342263937 
vn -0.0037011399399489164 0.0006956340512260795 -0.0014916935469955206 
vn -0.0037011399399489164 0.0006956340512260795 -0.0014916935469955206 
vn -0.0037011399399489164 0.0006956340512260795 -0.0014916935469955206 
vn -0.0037011399399489164 0.0006956340512260795 -0.0014916935469955206 
vn -0.001357915112748742 0.0015929241199046373 0.0034678743686527014 
vn -0.001357915112748742 0.0015929241199046373 0.0034678743686527014 
vn -0.001357915112748742 0.0015929241199046373 0.0034678743686527014 
vn -0.001357915112748742 0.0015929241199046373 0.0034678743686527014 
vn 0.0015482865273952484 0.0004327905480749905 -0.0037179288920015097 
vn 0.0015482865273952484 0.0004327905480749905 -0.0037179288920015097 
vn 0.0015482865273952484 0.0004327905480749905 -0.0037179288920015097 
vn 0.0015482865273952484 0.0004327905480749905 -0.0037179288920015097 
vn -0.0015482865273952484 0.0004327905480749905 -0.0037179288920015097 
vn -0.0015482865273952484 0.0004327905480749905 -0.0037179288920015097 
vn -0.0015482865273952484 0.0004327905480749905 -0.0037179288920015097 
vn -0.0015482865273952484 0.0004327905480749905 -0.0037179288920015097 
vn -0.0035234536044299603 0.0011774199083447456 0.0016144509427249432 
vn -0.0035234536044299603 0.0011774199083447456 0.0016144509427249432 
vn -0.0035234536044299603 0.0011774199083447456 0.0016144509427249432 
vn -0.0035234536044299603 0.0011774199083447456 0.0016144509427249432 
vn 0.00134529999922961 0.0015603182837367058 0.003487559035420418 
vn 0.00134529999922961 0.0015603182837367058 0.003487559035420418 
vn 0.00134529999922961 0.0015603182837367058 0.003487559035420418 
vn 0.00134529999922961 0.0015603182837367058 0.003487559035420418 
vn -0.0036931862123310566 0.000817340100184083 -0.0014490776229649782 
vn -0.0036931862123310566 0.000817340100184083 -0.0014490776229649782 
vn -0.0036931862123310566 0.000817340100184083 -0.0014490776229649782 
vn -0.0036931862123310566 0.000817340100184083 -0.0014490776229649782 
vn -0.0015909038484096527 -0.0005031105247326195 0.003690988989546895 
vn -0.0015909038484096527 -0.0005031105247326195 0.003690988989546895 
vn -0.0015909038484096527 -0.0005031105247326195 0.003690988989546895 
vn -0.0015909038484096527 -0.0005031105247326195 0.003690988989546895 
vn 0.0037241466343402863 0.00022112441365607083 0.001577761024236679 
vn 0.0037241466343402863 0.00022112441365607083 0.001577761024236679 
vn 0.0037241466343402863 0.00022112441365607083 0.001577761024236679 
vn 0.0037241466343402863 0.00022112441365607083 0.001577761024236679 
vn 0.0015809154137969017 0.0017221053130924702 -0.0033079530112445354 
vn 0.0015809154137969017 0.0017221053130924702 -0.0033079530112445354 
vn 0.0015809154137969017 0.0017221053130924702 -0.0033079530112445354 
vn 0.0015809154137969017 0.0017221053130924702 -0.0033079530112445354 
vn -0.0014091255143284798 0.001527592190541327 -0.0034768262412399054 
vn -0.0014091255143284798 0.001527592190541327 -0.0034768262412399054 
vn -0.0014091255143284798 0.001527592190541327 -0.0034768262412399054 
vn -0.0014091255143284798 0.001527592190541327 -0.0034768262412399054 
vn -0.003730459837242961 0.000008849615369399544 0.0015783170238137245 
vn -0.003730459837242961 0.000008849615369399544 0.0015783170238137245 
vn -0.003730459837242961 0.000008849615369399544 0.0015783170238137245 
vn -0.003730459837242961 0.000008849615369399544 0.0015783170238137245 
vn 0.0037073337007313967 0.000660736346617341 -0.0014921791153028607 
vn 0.0037073337007313967 0.000660736346617341 -0.0014921791153028607 
vn 0.0037073337007313967 0.000660736346617341 -0.0014921791153028607 
vn 0.0037073337007313967 0.000660736346617341 -0.0014921791153028607 
vn 0.003540733829140663 0.0011435062624514103 0.0016009656246751547 
vn 0.003540733829140663 0.0011435062624514103 0.0016009656246751547 
vn 0.003540733829140663 0.0011435062624514103 0.0016009656246751547 
vn 0.003540733829140663 0.0011435062624514103 0.0016009656246751547 
vn -0.0014325131196528673 0.0010583463590592146 0.0036380356177687645 
vn -0.0014325131196528673 0.0010583463590592146 0.0036380356177687645 
vn -0.0014325131196528673 0.0010583463590592146 0.0036380356177687645 
vn -0.0014325131196528673 0.0010583463590592146 0.0036380356177687645 
vn 0.0037422727327793837 -0.000008849610821926035 -0.0015501001616939902 
vn 0.0037422727327793837 -0.000008849610821926035 -0.0015501001616939902 
vn 0.0037422727327793837 -0.000008849610821926035 -0.0015501001616939902 
vn 0.0037422727327793837 -0.000008849610821926035 -0.0015501001616939902 
vn -0.003740871325135231 0.00023879407672211528 -0.0015350417234003544 
vn -0.003740871325135231 0.00023879407672211528 -0.0015350417234003544 
vn -0.003740871325135231 0.00023879407672211528 -0.0015350417234003544 
vn -0.003740871325135231 0.00023879407672211528 -0.0015350417234003544 
vn 0.0015825704904273152 0.0008692732662893832 0.003625924466177821 
vn 0.0015825704904273152 0.0008692732662893832 0.003625924466177821 
vn 0.0015825704904273152 0.0008692732662893832 0.003625924466177821 
vn 0.0015825704904273152 0.0008692732662893832 0.003625924466177821 
vn 0.003729570657014847 0.0004327914211899042 0.0015200290363281965 
vn 0.003729570657014847 0.0004327914211899042 0.0015200290363281965 
vn 0.003729570657014847 0.0004327914211899042 0.0015200290363281965 
vn 0.003729570657014847 0.0004327914211899042 0.0015200290363281965 
s on 
f 1//1 2//2 3//3 
f 2//2 4//4 3//3 
f 3//3 4//4 4//4 
f 4//4 5//5 4//4 
f 4//4 5//5 5//5 
f 5//5 6//6 5//5 
f 5//5 6//6 7//7 
f 6//6 8//8 7//7 
f 7//7 8//8 8//8 
f 8//8 9//9 8//8 
f 8//8 9//9 9//9 
f 9//9 10//10 9//9 
f 9//9 10//10 11//11 
f 10//10 12//12 11//11 
f 11//11 12//12 12//12 
f 12//12 13//13 12//12 
f 12//12 13//13 13//13 
f 13//13 14//14 13//13 
f 13//13 14//14 15//15 
f 14//14 16//16 15//15 
f 15//15 16//16 17//17 
f 16//16 18//18 17//17 
f 17//17 18//18 19//19 
f 18//18 20//20 19//19 
f 19//19 20//20 20//20 
f 20//20 21//21 20//20 
f 20//20 21//21 21//21 
f 21//21 22//22 21//21 
f 21//21 22//22 23//23 
f 22//22 24//24 23//23 
f 23//23 24//24 24//24 
f 24//24 25//25 24//24 
f 24//24 25//25 25//25 
f 25//25 26//26 25//25 
f 25//25 26//26 27//27 
f 26//26 28//28 27//27 
f 27//27 28//28 28//28 
f 28//28 29//29 28//28 
f 28//28 29//29 29//29 
f 29//29 30//30 29//29 
f 29//29 30//30 31//31 
f 30//30 32//32 31//31 
f 31//31 32//32 32//32 
f 32//32 33//33 32//32 
f 32//32 33//33 33//33 
f 33//33 34//34 33//33 
f 33//33 34//34 35//35 
f 34//34 36//36 35//35 
f 35//35 36//36 36//36 
f 36//36 37//37 36//36 
f 36//36 37//37 37//37 
f 37//37 38//38 37//37 
f 37//37 38//38 39//39 
f 38//38 40//40 39//39 
f 39//39 40//40 40//40 
f 40//40 41//41 40//40 
f 40//40 41//41 41//41 
f 41//41 42//42 41//41 
f 41//41 42//42 43//43 
f 42//42 44//44 43//43 
f 43//43 44//44 44//44 
f 44//44 45//45 44//44 
f 44//44 45//45 45//45 
f 45//45 46//46 45//45 
f 45//45 46//46 47//47 
f 46//46 48//48 47//47 
f 47//47 48//48 48//48 
f 48//48 49//49 48//48 
f 48//48 49//49 49//49 
f 49//49 50//50 49//49 
f 49//49 50//50 51//51 
f 50//50 52//52 51//51 
f 51//51 52//52 52//52 
f 52//52 53//53 52//52 
f 52//52 53//53 53//53 
f 53//53 54//54 53//53 
f 53//53 54//54 55//55 
f 54//54 56//56 55//55 
f 55//55 56//56 56//56 
f 56//56 57//57 56//56 
f 56//56 57//57 57//57 
f 57//57 58//58 57//57 
f 57//57 58//58 59//59 
f 58//58 60//60 59//59 
f 59//59 60//60 60//60 
f 60//60 61//61 60//60 
f 60//60 61//61 61//61 
f 61//61 62//62 61//61 
f 61//61 62//62 63//63 
f 62//62 64//64 63//63 
f 63//63 64//64 64//64 
f 64//64 65//65 64//64 
f 64//64 65//65 65//65 
f 65//65 66//66 65//65 
f 65//65 66//66 67//67 
f 66//66 68//68 67//67 
f 67//67 68//68 68//68 
f 68//68 69//69 68//68 
f 68//68 69//69 69//69 
f 69//69 70//70 69//69 
f 69//69 70//70 71//71 
f 70//70 72//72 71//71 
f 71//71 72//72 72//72 
f 72//72 73//73 72//72 
f 72//72 73//73 73//73 
f 73//73 74//74 73//73 
f 73//73 74//74 75//75 
f 74//74 76//76 75//75 
f 75//75 76//76 76//76 
f 76//76 77//77 76//76 
f 76//76 77//77 77//77 
f 77//77 78//78 77//77 
f 77//77 78//78 79//79 
f 78//78 80//80 79//79 
f 79//79 80//80 80//80 
f 80//80 81//81 80//80 
f 80//80 81//81 81//81 
f 81//81 82//82 81//81 
f 81//81 82//82 83//83 
f 82//82 84//84 83//83 
f 83//83 84//84 84//84 
f 84//84 85//85 84//84 
f 84//84 85//85 85//85 
f 85//85 86//86 85//85 
f 85//85 86//86 87//87 
f 86//86 88//88 87//87 
f 87//87 88//88 88//88 
f 88//88 89//89 88//88 
f 88//88 89//89 89//89 
f 89//89 90//90 89//89 
f 89//89 90//90 91//91 
f 90//90 92//92 91//91 
f 91//91 92//92 92//92 
f 92//92 93//93 92//92 
f 92//92 93//93 93//93 
f 93//93 94//94 93//93 
f 93//93 94//94 95//95 
f 94//94 96//96 95//95 
f 95//95 96//96 96//96 
f 96//96 97//97 96//96 
f 96//96 97//97 97//97 
f 97//97 98//98 97//97 
f 97//97 98//98 99//99 
f 98//98 100//100 99//99 
f 99//99 100//100 100//100 
f 100//100 101//101 100//100 
f 100//100 101//101 101//101 
f 101//101 102//102 101//101 
f 101//101 102//102 103//103 
f 102//102 104//104 103//103 

