mtllib model_37.mtl
o model_37
v -36.62858200073242 -6.947670936584473 -105.66102600097656 
v -18.340444564819336 65.95877075195312 -96.14889526367188 
v -40.68647766113281 -6.106442928314209 -116.81001281738281 
v -22.13412094116211 68.10858154296875 -106.84904479980469 
v 45.520057678222656 162.04574584960938 -65.61842346191406 
v 11.059392929077148 127.55538177490234 -86.86605072021484 
v 46.0847053527832 158.5873565673828 -60.464725494384766 
v 11.945169448852539 122.41454315185547 -80.83006286621094 
v -133.65206909179688 179.05722045898438 -112.58524322509766 
v -92.06441497802734 139.70643615722656 -105.28588104248047 
v -135.81385803222656 176.06617736816406 -118.24763488769531 
v -94.81303405761719 134.93946838378906 -112.00636291503906 
v 36.6270637512207 159.70899963378906 -59.29327392578125 
v 43.664554595947266 174.57069396972656 -45.77708053588867 
v 39.012821197509766 160.08287048339844 -62.159969329833984 
v 45.59614181518555 175.8792724609375 -46.84345626831055 
v 43.664554595947266 174.57069396972656 -45.77708053588867 
v 47.763092041015625 183.3568572998047 -31.19118881225586 
v 45.59614181518555 175.8792724609375 -46.84345626831055 
v 49.4275016784668 184.1046142578125 -32.16032028198242 
v 28.357152938842773 138.95870971679688 -69.54505157470703 
v 36.6270637512207 159.70899963378906 -59.29327392578125 
v 30.65532875061035 138.865234375 -72.65237426757812 
v 39.012821197509766 160.08287048339844 -62.159969329833984 
v -63.05915069580078 95.40176391601562 -132.556396484375 
v -64.89128875732422 112.5067367553711 -155.3247528076172 
v -67.80847930908203 95.49523162841797 -130.91860961914062 
v -68.09002685546875 113.72183990478516 -155.52301025390625 
v -64.89128875732422 112.5067367553711 -155.3247528076172 
v -61.607879638671875 122.13412475585938 -176.23080444335938 
v -68.09002685546875 113.72183990478516 -155.52301025390625 
v -64.27374267578125 122.78841400146484 -176.35052490234375 
v -56.3272819519043 70.91267395019531 -111.84390258789062 
v -63.05915069580078 95.40176391601562 -132.556396484375 
v -61.01970291137695 70.44532012939453 -109.77266693115234 
v -67.80847930908203 95.49523162841797 -130.91860961914062 
v -59.73037338256836 72.78206634521484 -112.60363006591797 
v -94.81303405761719 134.93946838378906 -112.00636291503906 
v -52.64594268798828 73.71676635742188 -102.28370666503906 
v -92.06441497802734 139.70643615722656 -105.28588104248047 
v -52.64594268798828 73.71676635742188 -102.28370666503906 
v -31.67045783996582 -7.228079319000244 -107.55647277832031 
v -59.73037338256836 72.78206634521484 -112.60363006591797 
v -39.10964584350586 -6.760731220245361 -118.01976776123047 
v 20.058189392089844 96.61687469482422 -145.55014038085938 
v -13.468375205993652 53.62076187133789 -120.44903564453125 
v 23.322711944580078 90.82174682617188 -146.55665588378906 
v -5.5990142822265625 48.94727325439453 -123.76741027832031 
v 47.25749969482422 119.6104507446289 -173.07167053222656 
v 20.058189392089844 96.61687469482422 -145.55014038085938 
v 50.431480407714844 115.40431213378906 -173.77273559570312 
v 23.322711944580078 90.82174682617188 -146.55665588378906 
v -13.468375205993652 53.62076187133789 -120.44903564453125 
v -43.19086837768555 -3.3958194255828857 -108.4500961303711 
v -5.5990142822265625 48.94727325439453 -123.76741027832031 
v -34.49077606201172 -7.134609699249268 -111.9800033569336 
v -18.340444564819336 65.95877075195312 -96.14889526367188 
v 11.945169448852539 122.41454315185547 -80.83006286621094 
v -22.13412094116211 68.10858154296875 -106.84904479980469 
v 11.059392929077148 127.55538177490234 -86.86605072021484 
vn -0.9181547164916992 0.18170751631259918 0.3520990014076233 
vn -0.9181547164916992 0.18170751631259918 0.3520990014076233 
vn -0.9181547164916992 0.18170751631259918 0.3520990014076233 
vn -0.9181547164916992 0.18170751631259918 0.3520990014076233 
vn -0.7581227421760559 0.4676610231399536 0.45446959137916565 
vn -0.7581227421760559 0.4676610231399536 0.45446959137916565 
vn -0.7581227421760559 0.4676610231399536 0.45446959137916565 
vn -0.7581227421760559 0.4676610231399536 0.45446959137916565 
vn 0.6167935729026794 0.5366180539131165 -0.575852632522583 
vn 0.6167935729026794 0.5366180539131165 -0.575852632522583 
vn 0.6167935729026794 0.5366180539131165 -0.575852632522583 
vn 0.6167935729026794 0.5366180539131165 -0.575852632522583 
vn -0.6199135780334473 0.6665087342262268 -0.41409292817115784 
vn -0.6199135780334473 0.6665087342262268 -0.41409292817115784 
vn -0.6199135780334473 0.6665087342262268 -0.41409292817115784 
vn -0.6199135780334473 0.6665087342262268 -0.41409292817115784 
vn -0.5877913236618042 0.7589501738548279 -0.2801709771156311 
vn -0.5877913236618042 0.7589501738548279 -0.2801709771156311 
vn -0.5877913236618042 0.7589501738548279 -0.2801709771156311 
vn -0.5877913236618042 0.7589501738548279 -0.2801709771156311 
vn -0.6810441613197327 0.5218149423599243 -0.5136998891830444 
vn -0.6810441613197327 0.5218149423599243 -0.5136998891830444 
vn -0.6810441613197327 0.5218149423599243 -0.5136998891830444 
vn -0.6810441613197327 0.5218149423599243 -0.5136998891830444 
vn 0.22527530789375305 0.7870914340019226 0.574228048324585 
vn 0.22527530789375305 0.7870914340019226 0.574228048324585 
vn 0.22527530789375305 0.7870914340019226 0.574228048324585 
vn 0.22527530789375305 0.7870914340019226 0.574228048324585 
vn 0.24848991632461548 0.8660131692886353 0.43390530347824097 
vn 0.24848991632461548 0.8660131692886353 0.43390530347824097 
vn 0.24848991632461548 0.8660131692886353 0.43390530347824097 
vn 0.24848991632461548 0.8660131692886353 0.43390530347824097 
vn 0.24984110891819 0.6631084084510803 0.7055964469909668 
vn 0.24984110891819 0.6631084084510803 0.7055964469909668 
vn 0.24984110891819 0.6631084084510803 0.7055964469909668 
vn 0.24984110891819 0.6631084084510803 0.7055964469909668 
vn 0.7237139940261841 0.4096909463405609 -0.5553295016288757 
vn 0.7237139940261841 0.4096909463405609 -0.5553295016288757 
vn 0.7237139940261841 0.4096909463405609 -0.5553295016288757 
vn 0.7237139940261841 0.4096909463405609 -0.5553295016288757 
vn 0.7936243414878845 0.2432350367307663 -0.5576705932617188 
vn 0.7936243414878845 0.2432350367307663 -0.5576705932617188 
vn 0.7936243414878845 0.2432350367307663 -0.5576705932617188 
vn 0.7936243414878845 0.2432350367307663 -0.5576705932617188 
vn 0.47186529636383057 0.14300145208835602 0.8699960708618164 
vn 0.47186529636383057 0.14300145208835602 0.8699960708618164 
vn 0.47186529636383057 0.14300145208835602 0.8699960708618164 
vn 0.47186529636383057 0.14300145208835602 0.8699960708618164 
vn 0.5759963989257812 0.2391788512468338 0.781678318977356 
vn 0.5759963989257812 0.2391788512468338 0.781678318977356 
vn 0.5759963989257812 0.2391788512468338 0.781678318977356 
vn 0.5759963989257812 0.2391788512468338 0.781678318977356 
vn 0.3807101249694824 -0.007545321714133024 0.9246633052825928 
vn 0.3807101249694824 -0.007545321714133024 0.9246633052825928 
vn 0.3807101249694824 -0.007545321714133024 0.9246633052825928 
vn 0.3807101249694824 -0.007545321714133024 0.9246633052825928 
vn -0.8515893816947937 0.3510020673274994 0.3893488943576813 
vn -0.8515893816947937 0.3510020673274994 0.3893488943576813 
vn -0.8515893816947937 0.3510020673274994 0.3893488943576813 
vn -0.8515893816947937 0.3510020673274994 0.3893488943576813 
s on 
f 1//1 2//2 3//3 
f 2//2 4//4 3//3 
f 3//3 4//4 4//4 
f 4//4 5//5 4//4 
f 4//4 5//5 5//5 
f 5//5 6//6 5//5 
f 5//5 6//6 7//7 
f 6//6 8//8 7//7 
f 7//7 8//8 8//8 
f 8//8 9//9 8//8 
f 8//8 9//9 9//9 
f 9//9 10//10 9//9 
f 9//9 10//10 11//11 
f 10//10 12//12 11//11 
f 11//11 12//12 12//12 
f 12//12 13//13 12//12 
f 12//12 13//13 13//13 
f 13//13 14//14 13//13 
f 13//13 14//14 15//15 
f 14//14 16//16 15//15 
f 15//15 16//16 16//16 
f 16//16 17//17 16//16 
f 16//16 17//17 17//17 
f 17//17 18//18 17//17 
f 17//17 18//18 19//19 
f 18//18 20//20 19//19 
f 19//19 20//20 20//20 
f 20//20 21//21 20//20 
f 20//20 21//21 21//21 
f 21//21 22//22 21//21 
f 21//21 22//22 23//23 
f 22//22 24//24 23//23 
f 23//23 24//24 24//24 
f 24//24 25//25 24//24 
f 24//24 25//25 25//25 
f 25//25 26//26 25//25 
f 25//25 26//26 27//27 
f 26//26 28//28 27//27 
f 27//27 28//28 28//28 
f 28//28 29//29 28//28 
f 28//28 29//29 29//29 
f 29//29 30//30 29//29 
f 29//29 30//30 31//31 
f 30//30 32//32 31//31 
f 31//31 32//32 32//32 
f 32//32 33//33 32//32 
f 32//32 33//33 33//33 
f 33//33 34//34 33//33 
f 33//33 34//34 35//35 
f 34//34 36//36 35//35 
f 35//35 36//36 36//36 
f 36//36 37//37 36//36 
f 36//36 37//37 37//37 
f 37//37 38//38 37//37 
f 37//37 38//38 39//39 
f 38//38 40//40 39//39 
f 39//39 40//40 40//40 
f 40//40 41//41 40//40 
f 40//40 41//41 41//41 
f 41//41 42//42 41//41 
f 41//41 42//42 43//43 
f 42//42 44//44 43//43 
f 43//43 44//44 44//44 
f 44//44 45//45 44//44 
f 44//44 45//45 45//45 
f 45//45 46//46 45//45 
f 45//45 46//46 47//47 
f 46//46 48//48 47//47 
f 47//47 48//48 48//48 
f 48//48 49//49 48//48 
f 48//48 49//49 49//49 
f 49//49 50//50 49//49 
f 49//49 50//50 51//51 
f 50//50 52//52 51//51 
f 51//51 52//52 52//52 
f 52//52 53//53 52//52 
f 52//52 53//53 53//53 
f 53//53 54//54 53//53 
f 53//53 54//54 55//55 
f 54//54 56//56 55//55 
f 55//55 56//56 56//56 
f 56//56 57//57 56//56 
f 56//56 57//57 57//57 
f 57//57 58//58 57//57 
f 57//57 58//58 59//59 
f 58//58 60//60 59//59 

