mtllib model_12.mtl
o model_12
v 1899.2193603515625 168.88917541503906 81.5492172241211 
v 1960.1331787109375 168.88917541503906 79.58448791503906 
v 1939.8284912109375 263.4871826171875 73.69031524658203 
v 1960.1331787109375 168.88917541503906 79.58448791503906 
v 2012.925048828125 197.26858520507812 10.818942070007324 
v 1939.8284912109375 263.4871826171875 73.69031524658203 
v 2027.1383056640625 0.9777273535728455 77.6197280883789 
v 2057.59521484375 0.9777311682701111 54.04296875 
v 2051.50390625 105.03553009033203 52.07825469970703 
v 2027.1383056640625 0.9777273535728455 77.6197280883789 
v 2088.052001953125 -3.752159833908081 -0.9694706201553345 
v 2057.59521484375 0.9777311682701111 54.04296875 
v 2088.052001953125 -3.752159833908081 -0.9694706201553345 
v 2098.204345703125 0.9777414202690125 -8.828390121459961 
v 2057.59521484375 0.9777311682701111 54.04296875 
v 1848.4578857421875 55.371578216552734 63.86662673950195 
v 1899.2193603515625 204.36343383789062 -28.475658416748047 
v 1840.3359375 -1.3872098922729492 -0.9694702625274658 
v 1840.3359375 -1.3872098922729492 -0.9694702625274658 
v 1899.2193603515625 204.36343383789062 -28.475658416748047 
v 1889.0670166015625 74.29120635986328 -99.2059555053711 
v 1889.0670166015625 74.29120635986328 -99.2059555053711 
v 1899.2193603515625 204.36343383789062 -28.475658416748047 
v 2014.95556640625 93.21080780029297 -85.45284271240234 
v 2057.59521484375 0.9777311682701111 54.04296875 
v 2098.204345703125 0.9777414202690125 -8.828390121459961 
v 2051.50390625 105.03553009033203 52.07825469970703 
v 2067.74755859375 109.76544189453125 0.9952778816223145 
v 2014.95556640625 93.21080780029297 -85.45284271240234 
v 1988.5595703125 187.8087921142578 -26.510929107666016 
v 1889.0670166015625 74.29120635986328 -99.2059555053711 
v 2014.95556640625 93.21080780029297 -85.45284271240234 
v 1964.194091796875 0.9777596592903137 -120.81800079345703 
v 1840.3359375 -1.3872098922729492 -0.9694702625274658 
v 1889.0670166015625 74.29120635986328 -99.2059555053711 
v 1964.194091796875 0.9777596592903137 -120.81800079345703 
v 2083.9912109375 0.9777519702911377 -73.66448211669922 
v 2067.74755859375 109.76544189453125 0.9952778816223145 
v 2098.204345703125 0.9777414202690125 -8.828390121459961 
v 2083.9912109375 0.9777519702911377 -73.66448211669922 
v 2098.204345703125 0.9777414202690125 -8.828390121459961 
v 2088.052001953125 -3.752159833908081 -0.9694706201553345 
v 1840.3359375 -1.3872098922729492 -0.9694702625274658 
v 1939.8284912109375 0.9777190089225769 128.7027130126953 
v 1848.4578857421875 55.371578216552734 63.86662673950195 
v 1899.2193603515625 204.36343383789062 -28.475658416748047 
v 1848.4578857421875 55.371578216552734 63.86662673950195 
v 1899.2193603515625 168.88917541503906 81.5492172241211 
v 1899.2193603515625 168.88917541503906 81.5492172241211 
v 1848.4578857421875 55.371578216552734 63.86662673950195 
v 1939.8284912109375 0.9777190089225769 128.7027130126953 
v 1899.2193603515625 168.88917541503906 81.5492172241211 
v 1939.8284912109375 0.9777190089225769 128.7027130126953 
v 1972.31591796875 90.8458251953125 112.9848861694336 
v 2067.74755859375 109.76544189453125 0.9952778816223145 
v 2051.50390625 105.03553009033203 52.07825469970703 
v 2098.204345703125 0.9777414202690125 -8.828390121459961 
v 2051.50390625 105.03553009033203 52.07825469970703 
v 2012.925048828125 197.26858520507812 10.818942070007324 
v 1960.1331787109375 168.88917541503906 79.58448791503906 
v 1964.194091796875 0.9777596592903137 -120.81800079345703 
v 2083.9912109375 0.9777519702911377 -73.66448211669922 
v 2088.052001953125 -3.752159833908081 -0.9694706201553345 
v 1964.194091796875 0.9777596592903137 -120.81800079345703 
v 2088.052001953125 -3.752159833908081 -0.9694706201553345 
v 2027.1383056640625 0.9777273535728455 77.6197280883789 
v 1960.1331787109375 168.88917541503906 79.58448791503906 
v 1899.2193603515625 168.88917541503906 81.5492172241211 
v 1972.31591796875 90.8458251953125 112.9848861694336 
v 2051.50390625 105.03553009033203 52.07825469970703 
v 1960.1331787109375 168.88917541503906 79.58448791503906 
v 1972.31591796875 90.8458251953125 112.9848861694336 
v 1840.3359375 -1.3872098922729492 -0.9694702625274658 
v 2027.1383056640625 0.9777273535728455 77.6197280883789 
v 1939.8284912109375 0.9777190089225769 128.7027130126953 
v 1840.3359375 -1.3872098922729492 -0.9694702625274658 
v 1964.194091796875 0.9777596592903137 -120.81800079345703 
v 2027.1383056640625 0.9777273535728455 77.6197280883789 
v 1972.31591796875 90.8458251953125 112.9848861694336 
v 1939.8284912109375 0.9777190089225769 128.7027130126953 
v 2027.1383056640625 0.9777273535728455 77.6197280883789 
v 2012.925048828125 197.26858520507812 10.818942070007324 
v 1919.52392578125 296.59649658203125 8.854228973388672 
v 1939.8284912109375 263.4871826171875 73.69031524658203 
v 1899.2193603515625 168.88917541503906 81.5492172241211 
v 1939.8284912109375 263.4871826171875 73.69031524658203 
v 1891.0975341796875 263.4871826171875 36.360443115234375 
v 1988.5595703125 187.8087921142578 -26.510929107666016 
v 2014.95556640625 93.21080780029297 -85.45284271240234 
v 1899.2193603515625 204.36343383789062 -28.475658416748047 
v 1899.2193603515625 204.36343383789062 -28.475658416748047 
v 1899.2193603515625 168.88917541503906 81.5492172241211 
v 1891.0975341796875 263.4871826171875 36.360443115234375 
v 1919.52392578125 296.59649658203125 8.854228973388672 
v 1899.2193603515625 204.36343383789062 -28.475658416748047 
v 1891.0975341796875 263.4871826171875 36.360443115234375 
v 1919.52392578125 296.59649658203125 8.854228973388672 
v 1891.0975341796875 263.4871826171875 36.360443115234375 
v 1939.8284912109375 263.4871826171875 73.69031524658203 
v 2014.95556640625 93.21080780029297 -85.45284271240234 
v 2083.9912109375 0.9777519702911377 -73.66448211669922 
v 1964.194091796875 0.9777596592903137 -120.81800079345703 
v 2083.9912109375 0.9777519702911377 -73.66448211669922 
v 2014.95556640625 93.21080780029297 -85.45284271240234 
v 2067.74755859375 109.76544189453125 0.9952778816223145 
v 1972.31591796875 90.8458251953125 112.9848861694336 
v 2027.1383056640625 0.9777273535728455 77.6197280883789 
v 2051.50390625 105.03553009033203 52.07825469970703 
v 1988.5595703125 187.8087921142578 -26.510929107666016 
v 1919.52392578125 296.59649658203125 8.854228973388672 
v 2012.925048828125 197.26858520507812 10.818942070007324 
v 1899.2193603515625 204.36343383789062 -28.475658416748047 
v 1919.52392578125 296.59649658203125 8.854228973388672 
v 1988.5595703125 187.8087921142578 -26.510929107666016 
v 2051.50390625 105.03553009033203 52.07825469970703 
v 2067.74755859375 109.76544189453125 0.9952778816223145 
v 2012.925048828125 197.26858520507812 10.818942070007324 
v 2067.74755859375 109.76544189453125 0.9952778816223145 
v 1988.5595703125 187.8087921142578 -26.510929107666016 
v 2012.925048828125 197.26858520507812 10.818942070007324 
vn 0.039294663816690445 0.07302156090736389 0.9965559244155884 
vn 0.039294663816690445 0.07302156090736389 0.9965559244155884 
vn 0.039294663816690445 0.07302156090736389 0.9965559244155884 
vn 0.7457586526870728 0.2011256217956543 0.6351318955421448 
vn 0.7457586526870728 0.2011256217956543 0.6351318955421448 
vn 0.7457586526870728 0.2011256217956543 0.6351318955421448 
vn 0.624433696269989 0.05273781344294548 0.7792953848838806 
vn 0.624433696269989 0.05273781344294548 0.7792953848838806 
vn 0.624433696269989 0.05273781344294548 0.7792953848838806 
vn 0.16349416971206665 -0.9707111716270447 0.17603805661201477 
vn 0.16349416971206665 -0.9707111716270447 0.17603805661201477 
vn 0.16349416971206665 -0.9707111716270447 0.17603805661201477 
vn 0.656470000743866 -0.6284695863723755 0.41722071170806885 
vn 0.656470000743866 -0.6284695863723755 0.41722071170806885 
vn 0.656470000743866 -0.6284695863723755 0.41722071170806885 
vn -0.9597707986831665 0.25391221046447754 -0.11986929178237915 
vn -0.9597707986831665 0.25391221046447754 -0.11986929178237915 
vn -0.9597707986831665 0.25391221046447754 -0.11986929178237915 
vn -0.9326863288879395 0.22450082004070282 -0.28230416774749756 
vn -0.9326863288879395 0.22450082004070282 -0.28230416774749756 
vn -0.9326863288879395 0.22450082004070282 -0.28230416774749756 
vn 0.03965195640921593 0.4761184751987457 -0.8784867525100708 
vn 0.03965195640921593 0.4761184751987457 -0.8784867525100708 
vn 0.03965195640921593 0.4761184751987457 -0.8784867525100708 
vn 0.8396268486976624 0.06030908226966858 0.5398051738739014 
vn 0.8396268486976624 0.06030908226966858 0.5398051738739014 
vn 0.8396268486976624 0.06030908226966858 0.5398051738739014 
vn 0.6758760809898376 0.5134605169296265 -0.5287246704101562 
vn 0.6758760809898376 0.5134605169296265 -0.5287246704101562 
vn 0.6758760809898376 0.5134605169296265 -0.5287246704101562 
vn 0.06206556409597397 0.3326271176338196 -0.9410138726234436 
vn 0.06206556409597397 0.3326271176338196 -0.9410138726234436 
vn 0.06206556409597397 0.3326271176338196 -0.9410138726234436 
vn -0.6225120425224304 -0.4429371654987335 -0.6452018618583679 
vn -0.6225120425224304 -0.4429371654987335 -0.6452018618583679 
vn -0.6225120425224304 -0.4429371654987335 -0.6452018618583679 
vn 0.938637375831604 0.2827605605125427 -0.19750024378299713 
vn 0.938637375831604 0.2827605605125427 -0.19750024378299713 
vn 0.938637375831604 0.2827605605125427 -0.19750024378299713 
vn 0.3876764178276062 -0.9199084639549255 -0.05895273759961128 
vn 0.3876764178276062 -0.9199084639549255 -0.05895273759961128 
vn 0.3876764178276062 -0.9199084639549255 -0.05895273759961128 
vn -0.6858809590339661 -0.5039154887199402 0.5250109434127808 
vn -0.6858809590339661 -0.5039154887199402 0.5250109434127808 
vn -0.6858809590339661 -0.5039154887199402 0.5250109434127808 
vn -0.9127037525177002 0.38928744196891785 0.12420613318681717 
vn -0.9127037525177002 0.38928744196891785 0.12420613318681717 
vn -0.9127037525177002 0.38928744196891785 0.12420613318681717 
vn -0.5358622074127197 0.10107114166021347 0.838234007358551 
vn -0.5358622074127197 0.10107114166021347 0.838234007358551 
vn -0.5358622074127197 0.10107114166021347 0.838234007358551 
vn -0.1653100550174713 0.2262495756149292 0.9599394798278809 
vn -0.1653100550174713 0.2262495756149292 0.9599394798278809 
vn -0.1653100550174713 0.2262495756149292 0.9599394798278809 
vn 0.9205740094184875 0.22421108186244965 0.3198012411594391 
vn 0.9205740094184875 0.22421108186244965 0.3198012411594391 
vn 0.9205740094184875 0.22421108186244965 0.3198012411594391 
vn 0.5657579302787781 0.5217611789703369 0.6385007500648499 
vn 0.5657579302787781 0.5217611789703369 0.6385007500648499 
vn 0.5657579302787781 0.5217611789703369 0.6385007500648499 
vn 0.020760230720043182 -0.9982929825782776 -0.054590411484241486 
vn 0.020760230720043182 -0.9982929825782776 -0.054590411484241486 
vn 0.020760230720043182 -0.9982929825782776 -0.054590411484241486 
vn -0.04528717324137688 -0.9987804889678955 0.019660834223031998 
vn -0.04528717324137688 -0.9987804889678955 0.019660834223031998 
vn -0.04528717324137688 -0.9987804889678955 0.019660834223031998 
vn 0.03941087797284126 0.40134379267692566 0.9150791764259338 
vn 0.03941087797284126 0.40134379267692566 0.9150791764259338 
vn 0.03941087797284126 0.40134379267692566 0.9150791764259338 
vn 0.5163580775260925 0.40592291951179504 0.7540563344955444 
vn 0.5163580775260925 0.40592291951179504 0.7540563344955444 
vn 0.5163580775260925 0.40592291951179504 0.7540563344955444 
vn 0.007551815826445818 -0.9999691247940063 0.0021845311857759953 
vn 0.007551815826445818 -0.9999691247940063 0.0021845311857759953 
vn 0.007551815826445818 -0.9999691247940063 0.0021845311857759953 
vn 0.007551815826445818 -0.9999691247940063 -0.0021848571486771107 
vn 0.007551815826445818 -0.9999691247940063 -0.0021848571486771107 
vn 0.007551815826445818 -0.9999691247940063 -0.0021848571486771107 
vn 0.499725878238678 -0.030083008110523224 0.865661084651947 
vn 0.499725878238678 -0.030083008110523224 0.865661084651947 
vn 0.499725878238678 -0.030083008110523224 0.865661084651947 
vn 0.7243325710296631 0.6789504289627075 0.11986944824457169 
vn 0.7243325710296631 0.6789504289627075 0.11986944824457169 
vn 0.7243325710296631 0.6789504289627075 0.11986944824457169 
vn -0.5693767070770264 0.32075509428977966 0.7569189667701721 
vn -0.5693767070770264 0.32075509428977966 0.7569189667701721 
vn -0.5693767070770264 0.32075509428977966 0.7569189667701721 
vn 0.11822260916233063 0.5398210883140564 -0.8334366679191589 
vn 0.11822260916233063 0.5398210883140564 -0.8334366679191589 
vn 0.11822260916233063 0.5398210883140564 -0.8334366679191589 
vn -0.9961497187614441 -0.08294197916984558 -0.028397241607308388 
vn -0.9961497187614441 -0.08294197916984558 -0.028397241607308388 
vn -0.9961497187614441 -0.08294197916984558 -0.028397241607308388 
vn -0.8365325331687927 0.35977932810783386 -0.4132458567619324 
vn -0.8365325331687927 0.35977932810783386 -0.4132458567619324 
vn -0.8365325331687927 0.35977932810783386 -0.4132458567619324 
vn -0.3790196180343628 0.772131085395813 0.5100566148757935 
vn -0.3790196180343628 0.772131085395813 0.5100566148757935 
vn -0.3790196180343628 0.772131085395813 0.5100566148757935 
vn 0.3488733172416687 0.1680086851119995 -0.9219872951507568 
vn 0.3488733172416687 0.1680086851119995 -0.9219872951507568 
vn 0.3488733172416687 0.1680086851119995 -0.9219872951507568 
vn 0.6995930671691895 0.47653916478157043 -0.5324283242225647 
vn 0.6995930671691895 0.47653916478157043 -0.5324283242225647 
vn 0.6995930671691895 0.47653916478157043 -0.5324283242225647 
vn 0.6065021753311157 0.06020854786038399 0.7927988767623901 
vn 0.6065021753311157 0.06020854786038399 0.7927988767623901 
vn 0.6065021753311157 0.06020854786038399 0.7927988767623901 
vn 0.6101582050323486 0.5514221787452698 -0.5688941478729248 
vn 0.6101582050323486 0.5514221787452698 -0.5688941478729248 
vn 0.6101582050323486 0.5514221787452698 -0.5688941478729248 
vn 0.08600598573684692 0.35258060693740845 -0.9318207502365112 
vn 0.08600598573684692 0.35258060693740845 -0.9318207502365112 
vn 0.08600598573684692 0.35258060693740845 -0.9318207502365112 
vn 0.8173105120658875 0.4820408523082733 0.3156583309173584 
vn 0.8173105120658875 0.4820408523082733 0.3156583309173584 
vn 0.8173105120658875 0.4820408523082733 0.3156583309173584 
vn 0.6583653688430786 0.48019739985466003 -0.5796253681182861 
vn 0.6583653688430786 0.48019739985466003 -0.5796253681182861 
vn 0.6583653688430786 0.48019739985466003 -0.5796253681182861 
s on 
f 1//1 2//2 3//3 
f 4//4 5//5 6//6 
f 7//7 8//8 9//9 
f 10//10 11//11 12//12 
f 13//13 14//14 15//15 
f 16//16 17//17 18//18 
f 19//19 20//20 21//21 
f 22//22 23//23 24//24 
f 25//25 26//26 27//27 
f 28//28 29//29 30//30 
f 31//31 32//32 33//33 
f 34//34 35//35 36//36 
f 37//37 38//38 39//39 
f 40//40 41//41 42//42 
f 43//43 44//44 45//45 
f 46//46 47//47 48//48 
f 49//49 50//50 51//51 
f 52//52 53//53 54//54 
f 55//55 56//56 57//57 
f 58//58 59//59 60//60 
f 61//61 62//62 63//63 
f 64//64 65//65 66//66 
f 67//67 68//68 69//69 
f 70//70 71//71 72//72 
f 73//73 74//74 75//75 
f 76//76 77//77 78//78 
f 79//79 80//80 81//81 
f 82//82 83//83 84//84 
f 85//85 86//86 87//87 
f 88//88 89//89 90//90 
f 91//91 92//92 93//93 
f 94//94 95//95 96//96 
f 97//97 98//98 99//99 
f 100//100 101//101 102//102 
f 103//103 104//104 105//105 
f 106//106 107//107 108//108 
f 109//109 110//110 111//111 
f 112//112 113//113 114//114 
f 115//115 116//116 117//117 
f 118//118 119//119 120//120 

