mtllib model_28.mtl
o model_28
v 812.8226928710938 66.70289611816406 -150.5150909423828 
v 788.6859130859375 30.601587295532227 -152.8104248046875 
v 816.2831420898438 66.70289611816406 -137.8087921142578 
v 793.1845092773438 30.659345626831055 -136.33323669433594 
v 747.50634765625 59.54038619995117 -78.45809936523438 
v 758.060791015625 27.19361686706543 -103.7887191772461 
v 730.7230834960938 60.060245513916016 -83.70457458496094 
v 735.6542358398438 28.002286911010742 -110.7566909790039 
v 743.6133422851562 -19.998016357421875 -120.6758041381836 
v 735.6542358398438 28.002286911010742 -110.7566909790039 
v 755.8114624023438 -20.691162109375 -116.98688507080078 
v 758.060791015625 27.19361686706543 -103.7887191772461 
v 751.2263793945312 -18.842771530151367 -147.89187622070312 
v 746.6412353515625 30.65934944152832 -156.66329956054688 
v 749.7556762695312 -18.842771530151367 -138.46461486816406 
v 743.6998291015625 30.601585388183594 -140.1041259765625 
v 798.11572265625 -14.395092964172363 -119.20023345947266 
v 805.03662109375 23.381317138671875 -108.8712387084961 
v 800.2785034179688 -14.395090103149414 -135.92335510253906 
v 809.0161743164062 23.323562622070312 -138.9564666748047 
v 769.9129028320312 21.590700149536133 -155.3516845703125 
v 757.36865234375 46.948265075683594 -168.13995361328125 
v 764.2896118164062 21.532936096191406 -146.1703643798828 
v 752.5240478515625 46.948265075683594 -160.27024841308594 
v 770.9509887695312 -13.239846229553223 -148.9575653076172 
v 769.9129028320312 21.590700149536133 -155.3516845703125 
v 767.4905395507812 -13.239847183227539 -143.21923828125 
v 764.2896118164062 21.532936096191406 -146.1703643798828 
v 755.4654541015625 30.659347534179688 -138.62857055664062 
v 737.3844604492188 66.70289611816406 -123.6269302368164 
v 768.6151733398438 30.60158348083496 -128.2176055908203 
v 747.765869140625 66.70288848876953 -115.59326934814453 
v 765.4142456054688 -18.842771530151367 -138.46461486816406 
v 755.4654541015625 30.659347534179688 -138.62857055664062 
v 772.9407958984375 -18.8427734375 -132.64431762695312 
v 768.6151733398438 30.60158348083496 -128.2176055908203 
v 771.5565795898438 36.955413818359375 -114.28166198730469 
v 781.8515014648438 79.29502868652344 -80.9173812866211 
v 792.23291015625 35.857933044433594 -123.13507843017578 
v 797.3370971679688 78.60188293457031 -87.72139739990234 
v 772.5947265625 -26.35184669494629 -131.00479125976562 
v 771.5565795898438 36.955413818359375 -114.28166198730469 
v 783.7547607421875 -27.33380126953125 -135.92335510253906 
v 792.23291015625 35.857933044433594 -123.13507843017578 
v 778.3045043945312 66.7029037475586 -182.64971923828125 
v 769.6533203125 30.601587295532227 -159.4504852294922 
v 791.3677978515625 66.7029037475586 -182.64971923828125 
v 786.609619140625 30.65934944152832 -159.7783966064453 
v 784.7929077148438 -18.842771530151367 -140.5959930419922 
v 793.1845092773438 30.659345626831055 -136.33323669433594 
v 782.2840576171875 -18.842769622802734 -149.77732849121094 
v 788.6859130859375 30.601587295532227 -152.8104248046875 
v 769.6533203125 30.601587295532227 -159.4504852294922 
v 769.9993896484375 -18.842769622802734 -151.90870666503906 
v 786.609619140625 30.65934944152832 -159.7783966064453 
v 779.5156860351562 -18.842769622802734 -151.90870666503906 
v 746.6412353515625 30.65934944152832 -156.66329956054688 
v 724.7537841796875 66.70289611816406 -165.35276794433594 
v 743.6998291015625 30.601585388183594 -140.1041259765625 
v 722.677490234375 66.70289611816406 -152.31857299804688 
v 805.03662109375 23.381317138671875 -108.8712387084961 
v 831.336181640625 50.876075744628906 -103.37883758544922 
v 809.0161743164062 23.323562622070312 -138.9564666748047 
v 834.3640747070312 50.87607955932617 -126.49610137939453 
v 778.3045043945312 66.7029037475586 -182.64971923828125 
v 791.3677978515625 66.7029037475586 -182.64971923828125 
v 785.5714721679688 80.1614761352539 -213.63668823242188 
v 812.8226928710938 66.70289611816406 -150.5150909423828 
v 816.2831420898438 66.70289611816406 -137.8087921142578 
v 844.6589965820312 80.16146850585938 -151.66275024414062 
v 797.3370971679688 78.60188293457031 -87.72139739990234 
v 781.8515014648438 79.29502868652344 -80.9173812866211 
v 805.9017333984375 90.90520477294922 -45.831607818603516 
v 747.765869140625 66.70288848876953 -115.59326934814453 
v 737.3844604492188 66.70289611816406 -123.6269302368164 
v 723.1100463867188 80.16146087646484 -95.42715454101562 
v 752.5240478515625 46.948265075683594 -160.27024841308594 
v 757.36865234375 46.948265075683594 -168.13995361328125 
v 736.5193481445312 56.47901153564453 -176.00965881347656 
v 834.3640747070312 50.87607955932617 -126.49610137939453 
v 831.336181640625 50.876075744628906 -103.37883758544922 
v 870.2664794921875 61.15773391723633 -117.3967514038086 
v 722.677490234375 66.70289611816406 -152.31857299804688 
v 724.7537841796875 66.70289611816406 -165.35276794433594 
v 693.177001953125 80.16146850585938 -164.36904907226562 
v 747.50634765625 59.54038619995117 -78.45809936523438 
v 730.7230834960938 60.060245513916016 -83.70457458496094 
v 737.5574951171875 68.84008026123047 -46.979278564453125 
vn -0.8151909112930298 0.5344876050949097 0.2231295257806778 
vn -0.8151909112930298 0.5344876050949097 0.2231295257806778 
vn -0.8151909112930298 0.5344876050949097 0.2231295257806778 
vn -0.8151909112930298 0.5344876050949097 0.2231295257806778 
vn 0.24385559558868408 0.6479089260101318 -0.7216290235519409 
vn 0.24385559558868408 0.6479089260101318 -0.7216290235519409 
vn 0.24385559558868408 0.6479089260101318 -0.7216290235519409 
vn 0.24385559558868408 0.6479089260101318 -0.7216290235519409 
vn 0.299925297498703 0.23849089443683624 -0.9236703515052795 
vn 0.299925297498703 0.23849089443683624 -0.9236703515052795 
vn 0.299925297498703 0.23849089443683624 -0.9236703515052795 
vn 0.299925297498703 0.23849089443683624 -0.9236703515052795 
vn 0.9785022139549255 0.120419442653656 0.16742931306362152 
vn 0.9785022139549255 0.120419442653656 0.16742931306362152 
vn 0.9785022139549255 0.120419442653656 0.16742931306362152 
vn 0.9785022139549255 0.120419442653656 0.16742931306362152 
vn -0.9684346914291382 0.21356862783432007 -0.12854039669036865 
vn -0.9684346914291382 0.21356862783432007 -0.12854039669036865 
vn -0.9684346914291382 0.21356862783432007 -0.12854039669036865 
vn -0.9684346914291382 0.21356862783432007 -0.12854039669036865 
vn 0.7041745781898499 0.5656973719596863 0.4290974736213684 
vn 0.7041745781898499 0.5656973719596863 0.4290974736213684 
vn 0.7041745781898499 0.5656973719596863 0.4290974736213684 
vn 0.7041745781898499 0.5656973719596863 0.4290974736213684 
vn 0.8494380116462708 0.12022653967142105 0.5138099193572998 
vn 0.8494380116462708 0.12022653967142105 0.5138099193572998 
vn 0.8494380116462708 0.12022653967142105 0.5138099193572998 
vn 0.8494380116462708 0.12022653967142105 0.5138099193572998 
vn 0.5247780084609985 0.5354542136192322 -0.6617377996444702 
vn 0.5247780084609985 0.5354542136192322 -0.6617377996444702 
vn 0.5247780084609985 0.5354542136192322 -0.6617377996444702 
vn 0.5247780084609985 0.5354542136192322 -0.6617377996444702 
vn 0.6150268912315369 0.12016942352056503 -0.7792953848838806 
vn 0.6150268912315369 0.12016942352056503 -0.7792953848838806 
vn 0.6150268912315369 0.12016942352056503 -0.7792953848838806 
vn 0.6150268912315369 0.12016942352056503 -0.7792953848838806 
vn -0.2788133919239044 0.6336517930030823 -0.7216290235519409 
vn -0.2788133919239044 0.6336517930030823 -0.7216290235519409 
vn -0.2788133919239044 0.6336517930030823 -0.7216290235519409 
vn -0.2788133919239044 0.6336517930030823 -0.7216290235519409 
vn -0.3720181882381439 0.2329578995704651 -0.8985171318054199 
vn -0.3720181882381439 0.2329578995704651 -0.8985171318054199 
vn -0.3720181882381439 0.2329578995704651 -0.8985171318054199 
vn -0.3720181882381439 0.2329578995704651 -0.8985171318054199 
vn 0.009409688413143158 0.537882387638092 0.8429673314094543 
vn 0.009409688413143158 0.537882387638092 0.8429673314094543 
vn 0.009409688413143158 0.537882387638092 0.8429673314094543 
vn 0.009409688413143158 0.537882387638092 0.8429673314094543 
vn -0.9557286500930786 0.1353345364332199 0.26128020882606506 
vn -0.9557286500930786 0.1353345364332199 0.26128020882606506 
vn -0.9557286500930786 0.1353345364332199 0.26128020882606506 
vn -0.9557286500930786 0.1353345364332199 0.26128020882606506 
vn 0.014931275509297848 0.15159961581230164 0.9883291721343994 
vn 0.014931275509297848 0.15159961581230164 0.9883291721343994 
vn 0.014931275509297848 0.15159961581230164 0.9883291721343994 
vn 0.014931275509297848 0.15159961581230164 0.9883291721343994 
vn 0.832414448261261 0.5357760190963745 0.14152853190898895 
vn 0.832414448261261 0.5357760190963745 0.14152853190898895 
vn 0.832414448261261 0.5357760190963745 0.14152853190898895 
vn 0.832414448261261 0.5357760190963745 0.14152853190898895 
vn -0.7099659442901611 0.6979607343673706 -0.09380369633436203 
vn -0.7099659442901611 0.6979607343673706 -0.09380369633436203 
vn -0.7099659442901611 0.6979607343673706 -0.09380369633436203 
vn -0.7099659442901611 0.6979607343673706 -0.09380369633436203 
vn -9.510481866013137e-14 0.9177024960517883 0.3972683250904083 
vn -9.510481866013137e-14 0.9177024960517883 0.3972683250904083 
vn -9.510481866013137e-14 0.9177024960517883 0.3972683250904083 
vn -0.3822347819805145 0.9178674221038818 0.1068459004163742 
vn -0.3822347819805145 0.9178674221038818 0.1068459004163742 
vn -0.3822347819805145 0.9178674221038818 0.1068459004163742 
vn -0.07168951630592346 0.9614431858062744 -0.2654951214790344 
vn -0.07168951630592346 0.9614431858062744 -0.2654951214790344 
vn -0.07168951630592346 0.9614431858062744 -0.2654951214790344 
vn 0.24102158844470978 0.9177519083023071 -0.3156580924987793 
vn 0.24102158844470978 0.9177519083023071 -0.3156580924987793 
vn 0.24102158844470978 0.9177519083023071 -0.3156580924987793 
vn 0.33802559971809387 0.9183017611503601 0.20605944097042084 
vn 0.33802559971809387 0.9183017611503601 0.20605944097042084 
vn 0.33802559971809387 0.9183017611503601 0.20605944097042084 
vn -0.2683466970920563 0.9626065492630005 -0.037131134420633316 
vn -0.2683466970920563 0.9626065492630005 -0.037131134420633316 
vn -0.2683466970920563 0.9626065492630005 -0.037131134420633316 
vn 0.39451509714126587 0.9167056083679199 0.06331395357847214 
vn 0.39451509714126587 0.9167056083679199 0.06331395357847214 
vn 0.39451509714126587 0.9167056083679199 0.06331395357847214 
vn 0.10925322771072388 0.9624236226081848 -0.24860507249832153 
vn 0.10925322771072388 0.9624236226081848 -0.24860507249832153 
vn 0.10925322771072388 0.9624236226081848 -0.24860507249832153 
s on 
f 1//1 2//2 3//3 
f 2//2 4//4 3//3 
f 3//3 4//4 4//4 
f 4//4 5//5 4//4 
f 4//4 5//5 5//5 
f 5//5 6//6 5//5 
f 5//5 6//6 7//7 
f 6//6 8//8 7//7 
f 7//7 8//8 8//8 
f 8//8 9//9 8//8 
f 8//8 9//9 9//9 
f 9//9 10//10 9//9 
f 9//9 10//10 11//11 
f 10//10 12//12 11//11 
f 11//11 12//12 12//12 
f 12//12 13//13 12//12 
f 12//12 13//13 13//13 
f 13//13 14//14 13//13 
f 13//13 14//14 15//15 
f 14//14 16//16 15//15 
f 15//15 16//16 16//16 
f 16//16 17//17 16//16 
f 16//16 17//17 17//17 
f 17//17 18//18 17//17 
f 17//17 18//18 19//19 
f 18//18 20//20 19//19 
f 19//19 20//20 20//20 
f 20//20 21//21 20//20 
f 20//20 21//21 21//21 
f 21//21 22//22 21//21 
f 21//21 22//22 23//23 
f 22//22 24//24 23//23 
f 23//23 24//24 24//24 
f 24//24 25//25 24//24 
f 24//24 25//25 25//25 
f 25//25 26//26 25//25 
f 25//25 26//26 27//27 
f 26//26 28//28 27//27 
f 27//27 28//28 28//28 
f 28//28 29//29 28//28 
f 28//28 29//29 29//29 
f 29//29 30//30 29//29 
f 29//29 30//30 31//31 
f 30//30 32//32 31//31 
f 31//31 32//32 32//32 
f 32//32 33//33 32//32 
f 32//32 33//33 33//33 
f 33//33 34//34 33//33 
f 33//33 34//34 35//35 
f 34//34 36//36 35//35 
f 35//35 36//36 36//36 
f 36//36 37//37 36//36 
f 36//36 37//37 37//37 
f 37//37 38//38 37//37 
f 37//37 38//38 39//39 
f 38//38 40//40 39//39 
f 39//39 40//40 40//40 
f 40//40 41//41 40//40 
f 40//40 41//41 41//41 
f 41//41 42//42 41//41 
f 41//41 42//42 43//43 
f 42//42 44//44 43//43 
f 43//43 44//44 44//44 
f 44//44 45//45 44//44 
f 44//44 45//45 45//45 
f 45//45 46//46 45//45 
f 45//45 46//46 47//47 
f 46//46 48//48 47//47 
f 47//47 48//48 48//48 
f 48//48 49//49 48//48 
f 48//48 49//49 49//49 
f 49//49 50//50 49//49 
f 49//49 50//50 51//51 
f 50//50 52//52 51//51 
f 51//51 52//52 52//52 
f 52//52 53//53 52//52 
f 52//52 53//53 53//53 
f 53//53 54//54 53//53 
f 53//53 54//54 55//55 
f 54//54 56//56 55//55 
f 55//55 56//56 56//56 
f 56//56 57//57 56//56 
f 56//56 57//57 57//57 
f 57//57 58//58 57//57 
f 57//57 58//58 59//59 
f 58//58 60//60 59//59 
f 59//59 60//60 60//60 
f 60//60 61//61 60//60 
f 60//60 61//61 61//61 
f 61//61 62//62 61//61 
f 61//61 62//62 63//63 
f 62//62 64//64 63//63 
f 65//65 66//66 67//67 
f 68//68 69//69 70//70 
f 71//71 72//72 73//73 
f 74//74 75//75 76//76 
f 77//77 78//78 79//79 
f 80//80 81//81 82//82 
f 83//83 84//84 85//85 
f 86//86 87//87 88//88 

