mtllib model_34.mtl
o model_34
v 511.653076171875 2.627431631088257 -129.67135620117188 
v 511.0085754394531 4.675146102905273 -139.87242126464844 
v 509.0750732421875 2.1155033111572266 -128.4348602294922 
v 504.56353759765625 1.5304436683654785 -136.16293334960938 
v 498.76300048828125 2.7736995220184326 -145.74575805664062 
v 504.56353759765625 1.5304436683654785 -136.16293334960938 
v 505.2080383300781 5.260207653045654 -146.36399841308594 
v 511.0085754394531 4.675146102905273 -139.87242126464844 
v 502.6300354003906 3.578153610229492 -117.9246826171875 
v 509.7195739746094 0.28718775510787964 -125.03451538085938 
v 500.052001953125 0.5797181725502014 -125.03451538085938 
v 508.4305725097656 -0.07847478985786438 -127.81661987304688 
v 509.0750732421875 6.430328369140625 -139.25416564941406 
v 508.4305725097656 2.481166362762451 -129.67135620117188 
v 515.8423461914062 3.5781567096710205 -135.85382080078125 
v 511.0085754394531 2.1155033111572266 -128.4348602294922 
v 514.8756103515625 8.916837692260742 -145.12750244140625 
v 509.0750732421875 6.430328369140625 -139.25416564941406 
v 521.6428833007812 7.307920455932617 -144.81838989257812 
v 515.8423461914062 3.5781567096710205 -135.85382080078125 
v 521.6428833007812 7.307920455932617 -144.81838989257812 
v 515.8423461914062 3.5781567096710205 -135.85382080078125 
v 524.5431518554688 9.209367752075195 -138.63592529296875 
v 521.3206787109375 6.795989990234375 -131.2169647216797 
v 515.8423461914062 3.5781567096710205 -135.85382080078125 
v 511.0085754394531 2.1155033111572266 -128.4348602294922 
v 521.3206787109375 6.795989990234375 -131.2169647216797 
v 513.2643432617188 2.6274311542510986 -126.58012390136719 
v 510.36407470703125 1.2379120588302612 -127.50749969482422 
v 519.0648803710938 0.6528509855270386 -126.27100372314453 
v 510.68634033203125 1.6767081022262573 -130.59872436523438 
v 520.3538818359375 3.7975540161132812 -133.68995666503906 
v 519.0648803710938 0.6528509855270386 -126.27100372314453 
v 530.3436889648438 1.8229721784591675 -124.41626739501953 
v 520.3538818359375 3.7975540161132812 -133.68995666503906 
v 528.4102172851562 4.309481620788574 -130.90785217285156 
v 518.09814453125 3.7975516319274902 -118.85205078125 
v 526.4766845703125 4.309479713439941 -119.16117858886719 
v 519.0648803710938 0.6528509855270386 -126.27100372314453 
v 530.3436889648438 1.8229721784591675 -124.41626739501953 
v 509.7195739746094 1.676707148551941 -124.72538757324219 
v 518.09814453125 3.7975516319274902 -118.85205078125 
v 510.36407470703125 1.2379120588302612 -127.50749969482422 
v 519.0648803710938 0.6528509855270386 -126.27100372314453 
v 509.0750732421875 1.6035747528076172 -126.58013153076172 
v 511.0085754394531 2.115501642227173 -117.9246826171875 
v 511.975341796875 2.042370557785034 -127.50749969482422 
v 518.42041015625 5.113938331604004 -119.7794189453125 
v 511.0085754394531 2.115501642227173 -117.9246826171875 
v 513.5866088867188 4.528875827789307 -107.10537719726562 
v 518.42041015625 5.113938331604004 -119.7794189453125 
v 518.7426147460938 6.649721622467041 -111.43309783935547 
v 503.5968017578125 5.333335876464844 -116.68819427490234 
v 507.1415710449219 6.722854137420654 -108.96011352539062 
v 511.0085754394531 2.115501642227173 -117.9246826171875 
v 513.5866088867188 4.528875827789307 -107.10537719726562 
v 506.1748046875 2.1155030727386475 -126.27100372314453 
v 503.5968017578125 5.333335876464844 -116.68819427490234 
v 509.0750732421875 1.6035747528076172 -126.58013153076172 
v 511.0085754394531 2.115501642227173 -117.9246826171875 
v 494.2514953613281 5.187070369720459 -116.997314453125 
v 502.6300354003906 3.578153610229492 -117.9246826171875 
v 489.4176940917969 3.285623788833618 -121.94328308105469 
v 500.052001953125 0.5797181725502014 -125.03451538085938 
v 489.4176940917969 3.285623788833618 -121.94328308105469 
v 500.052001953125 0.5797181725502014 -125.03451538085938 
v 490.7066955566406 5.479602813720703 -128.4348602294922 
v 498.1184997558594 3.9438188076019287 -132.14434814453125 
v 500.052001953125 0.5797181725502014 -125.03451538085938 
v 508.4305725097656 -0.07847478985786438 -127.81661987304688 
v 498.1184997558594 3.9438188076019287 -132.14434814453125 
v 507.78607177734375 0.43345388770103455 -130.59872436523438 
v 498.1184997558594 4.748277187347412 -132.14434814453125 
v 506.8193054199219 2.6274311542510986 -126.58012390136719 
v 504.56353759765625 1.5304436683654785 -136.16293334960938 
v 509.0750732421875 2.1155033111572266 -128.4348602294922 
v 504.56353759765625 1.5304436683654785 -136.16293334960938 
v 498.76300048828125 2.7736995220184326 -145.74575805664062 
v 498.1184997558594 4.748277187347412 -132.14434814453125 
v 494.89599609375 5.260206699371338 -140.18153381347656 
vn -0.28088024258613586 0.9450258016586304 0.16742944717407227 
vn -0.28088024258613586 0.9450258016586304 0.16742944717407227 
vn -0.28088024258613586 0.9450258016586304 0.16742944717407227 
vn -0.28088024258613586 0.9450258016586304 0.16742944717407227 
vn -0.28974786400794983 0.9064101576805115 0.3073544502258301 
vn -0.28974786400794983 0.9064101576805115 0.3073544502258301 
vn -0.28974786400794983 0.9064101576805115 0.3073544502258301 
vn -0.28974786400794983 0.9064101576805115 0.3073544502258301 
vn 0.03772711753845215 0.9409949779510498 -0.33631110191345215 
vn 0.03772711753845215 0.9409949779510498 -0.33631110191345215 
vn 0.03772711753845215 0.9409949779510498 -0.33631110191345215 
vn 0.03772711753845215 0.9409949779510498 -0.33631110191345215 
vn 0.13542404770851135 0.9274263978004456 0.3486267924308777 
vn 0.13542404770851135 0.9274263978004456 0.3486267924308777 
vn 0.13542404770851135 0.9274263978004456 0.3486267924308777 
vn 0.13542404770851135 0.9274263978004456 0.3486267924308777 
vn 0.14270246028900146 0.8720543384552002 0.4681423306465149 
vn 0.14270246028900146 0.8720543384552002 0.4681423306465149 
vn 0.14270246028900146 0.8720543384552002 0.4681423306465149 
vn 0.14270246028900146 0.8720543384552002 0.4681423306465149 
vn -0.5301013588905334 0.8477063179016113 0.019661134108901024 
vn -0.5301013588905334 0.8477063179016113 0.019661134108901024 
vn -0.5301013588905334 0.8477063179016113 0.019661134108901024 
vn -0.5301013588905334 0.8477063179016113 0.019661134108901024 
vn -0.4102942943572998 0.9116365313529968 -0.024029191583395004 
vn -0.4102942943572998 0.9116365313529968 -0.024029191583395004 
vn -0.4102942943572998 0.9116365313529968 -0.024029191583395004 
vn -0.4102942943572998 0.9116365313529968 -0.024029191583395004 
vn -0.04903212562203407 0.9476051926612854 0.3156583905220032 
vn -0.04903212562203407 0.9476051926612854 0.3156583905220032 
vn -0.04903212562203407 0.9476051926612854 0.3156583905220032 
vn -0.04903212562203407 0.9476051926612854 0.3156583905220032 
vn -0.17059199512004852 0.9119828939437866 0.3730757534503937 
vn -0.17059199512004852 0.9119828939437866 0.3730757534503937 
vn -0.17059199512004852 0.9119828939437866 0.3730757534503937 
vn -0.17059199512004852 0.9119828939437866 0.3730757534503937 
vn -0.0453001968562603 0.9076755046844482 -0.4172206521034241 
vn -0.0453001968562603 0.9076755046844482 -0.4172206521034241 
vn -0.0453001968562603 0.9076755046844482 -0.4172206521034241 
vn -0.0453001968562603 0.9076755046844482 -0.4172206521034241 
vn 0.04906230419874191 0.9433789849281311 -0.3280686140060425 
vn 0.04906230419874191 0.9433789849281311 -0.3280686140060425 
vn 0.04906230419874191 0.9433789849281311 -0.3280686140060425 
vn 0.04906230419874191 0.9433789849281311 -0.3280686140060425 
vn -0.33315327763557434 0.9423032402992249 -0.03276441991329193 
vn -0.33315327763557434 0.9423032402992249 -0.03276441991329193 
vn -0.33315327763557434 0.9423032402992249 -0.03276441991329193 
vn -0.33315327763557434 0.9423032402992249 -0.03276441991329193 
vn -0.42735016345977783 0.8961044549942017 -0.1198691874742508 
vn -0.42735016345977783 0.8961044549942017 -0.1198691874742508 
vn -0.42735016345977783 0.8961044549942017 -0.1198691874742508 
vn -0.42735016345977783 0.8961044549942017 -0.1198691874742508 
vn 0.35911908745765686 0.8854910135269165 -0.29485443234443665 
vn 0.35911908745765686 0.8854910135269165 -0.29485443234443665 
vn 0.35911908745765686 0.8854910135269165 -0.29485443234443665 
vn 0.35911908745765686 0.8854910135269165 -0.29485443234443665 
vn 0.30993127822875977 0.9343196153640747 -0.17603807151317596 
vn 0.30993127822875977 0.9343196153640747 -0.17603807151317596 
vn 0.30993127822875977 0.9343196153640747 -0.17603807151317596 
vn 0.30993127822875977 0.9343196153640747 -0.17603807151317596 
vn 0.109225332736969 0.8947325348854065 -0.4330398142337799 
vn 0.109225332736969 0.8947325348854065 -0.4330398142337799 
vn 0.109225332736969 0.8947325348854065 -0.4330398142337799 
vn 0.109225332736969 0.8947325348854065 -0.4330398142337799 
vn 0.3496503531932831 0.8712318539619446 0.3445282280445099 
vn 0.3496503531932831 0.8712318539619446 0.3445282280445099 
vn 0.3496503531932831 0.8712318539619446 0.3445282280445099 
vn 0.3496503531932831 0.8712318539619446 0.3445282280445099 
vn 0.2243470549583435 0.9247711300849915 0.3073544502258301 
vn 0.2243470549583435 0.9247711300849915 0.3073544502258301 
vn 0.2243470549583435 0.9247711300849915 0.3073544502258301 
vn 0.2243470549583435 0.9247711300849915 0.3073544502258301 
vn 0.28302276134490967 0.9443863034248352 -0.1674291491508484 
vn 0.28302276134490967 0.9443863034248352 -0.1674291491508484 
vn 0.28302276134490967 0.9443863034248352 -0.1674291491508484 
vn 0.28302276134490967 0.9443863034248352 -0.1674291491508484 
vn 0.3944539427757263 0.9116243124008179 -0.11553017050027847 
vn 0.3944539427757263 0.9116243124008179 -0.11553017050027847 
vn 0.3944539427757263 0.9116243124008179 -0.11553017050027847 
vn 0.3944539427757263 0.9116243124008179 -0.11553017050027847 
s on 
f 1//1 2//2 3//3 
f 2//2 4//4 3//3 
f 3//3 4//4 4//4 
f 4//4 5//5 4//4 
f 4//4 5//5 5//5 
f 5//5 6//6 5//5 
f 5//5 6//6 7//7 
f 6//6 8//8 7//7 
f 7//7 8//8 8//8 
f 8//8 9//9 8//8 
f 8//8 9//9 9//9 
f 9//9 10//10 9//9 
f 9//9 10//10 11//11 
f 10//10 12//12 11//11 
f 11//11 12//12 12//12 
f 12//12 13//13 12//12 
f 12//12 13//13 13//13 
f 13//13 14//14 13//13 
f 13//13 14//14 15//15 
f 14//14 16//16 15//15 
f 15//15 16//16 16//16 
f 16//16 17//17 16//16 
f 16//16 17//17 17//17 
f 17//17 18//18 17//17 
f 17//17 18//18 19//19 
f 18//18 20//20 19//19 
f 19//19 20//20 20//20 
f 20//20 21//21 20//20 
f 20//20 21//21 21//21 
f 21//21 22//22 21//21 
f 21//21 22//22 23//23 
f 22//22 24//24 23//23 
f 23//23 24//24 24//24 
f 24//24 25//25 24//24 
f 24//24 25//25 25//25 
f 25//25 26//26 25//25 
f 25//25 26//26 27//27 
f 26//26 28//28 27//27 
f 27//27 28//28 28//28 
f 28//28 29//29 28//28 
f 28//28 29//29 29//29 
f 29//29 30//30 29//29 
f 29//29 30//30 31//31 
f 30//30 32//32 31//31 
f 31//31 32//32 32//32 
f 32//32 33//33 32//32 
f 32//32 33//33 33//33 
f 33//33 34//34 33//33 
f 33//33 34//34 35//35 
f 34//34 36//36 35//35 
f 35//35 36//36 36//36 
f 36//36 37//37 36//36 
f 36//36 37//37 37//37 
f 37//37 38//38 37//37 
f 37//37 38//38 39//39 
f 38//38 40//40 39//39 
f 39//39 40//40 40//40 
f 40//40 41//41 40//40 
f 40//40 41//41 41//41 
f 41//41 42//42 41//41 
f 41//41 42//42 43//43 
f 42//42 44//44 43//43 
f 43//43 44//44 44//44 
f 44//44 45//45 44//44 
f 44//44 45//45 45//45 
f 45//45 46//46 45//45 
f 45//45 46//46 47//47 
f 46//46 48//48 47//47 
f 47//47 48//48 48//48 
f 48//48 49//49 48//48 
f 48//48 49//49 49//49 
f 49//49 50//50 49//49 
f 49//49 50//50 51//51 
f 50//50 52//52 51//51 
f 51//51 52//52 52//52 
f 52//52 53//53 52//52 
f 52//52 53//53 53//53 
f 53//53 54//54 53//53 
f 53//53 54//54 55//55 
f 54//54 56//56 55//55 
f 55//55 56//56 56//56 
f 56//56 57//57 56//56 
f 56//56 57//57 57//57 
f 57//57 58//58 57//57 
f 57//57 58//58 59//59 
f 58//58 60//60 59//59 
f 59//59 60//60 60//60 
f 60//60 61//61 60//60 
f 60//60 61//61 61//61 
f 61//61 62//62 61//61 
f 61//61 62//62 63//63 
f 62//62 64//64 63//63 
f 63//63 64//64 64//64 
f 64//64 65//65 64//64 
f 64//64 65//65 65//65 
f 65//65 66//66 65//65 
f 65//65 66//66 67//67 
f 66//66 68//68 67//67 
f 67//67 68//68 68//68 
f 68//68 69//69 68//68 
f 68//68 69//69 69//69 
f 69//69 70//70 69//69 
f 69//69 70//70 71//71 
f 70//70 72//72 71//71 
f 71//71 72//72 72//72 
f 72//72 73//73 72//72 
f 72//72 73//73 73//73 
f 73//73 74//74 73//73 
f 73//73 74//74 75//75 
f 74//74 76//76 75//75 
f 75//75 76//76 76//76 
f 76//76 77//77 76//76 
f 76//76 77//77 77//77 
f 77//77 78//78 77//77 
f 77//77 78//78 79//79 
f 78//78 80//80 79//79 

