mtllib model_0.mtl
o model_0
v -1.1557899713516235 1.0047895908355713 0.2035662978887558 
v -0.7735605835914612 1.8385345935821533 0.2035662978887558 
v -1.0283801555633545 1.0047895908355713 -0.3009280860424042 
v -0.7735605835914612 1.8385345935821533 -0.3009280860424042 
v 0.7735583782196045 1.8385345935821533 -0.3009280860424042 
v 0.009099599905312061 1.8385345935821533 -0.3009280860424042 
v 0.7735583782196045 1.8385345935821533 0.2035662978887558 
v 0.009099599905312061 1.8385345935821533 0.2035662978887558 
v 0.009099599905312061 -1.2296470403671265 -1.0051182508468628 
v 0.009099599905312061 0.004295600112527609 -1.068179965019226 
v 0.7007527947425842 -1.2296470403671265 -0.5636855959892273 
v 0.9191696047782898 0.004295600112527609 -0.5636855959892273 
v -0.6825535893440247 1.8385345935821533 -0.5636855959892273 
v -0.9191718101501465 1.0047895908355713 -0.5636855959892273 
v -0.7735605835914612 1.8385345935821533 -0.3009280860424042 
v -1.0283801555633545 1.0047895908355713 -0.3009280860424042 
v 0.6643499732017517 1.6384358406066895 -0.10123240202665329 
v 0.009099599905312061 1.6384358406066895 -0.10123240202665329 
v 0.937371015548706 0.8713904023170471 -0.10123240202665329 
v -0.6643521785736084 1.6384358406066895 -0.10123240202665329 
v -0.9373732209205627 0.8713904023170471 -0.10123240202665329 
v -0.7007550001144409 -1.06289803981781 -0.017149999737739563 
v -0.28212279081344604 -1.7632437944412231 -0.017149999737739563 
v 0.7007527947425842 -1.06289803981781 -0.017149999737739563 
v 0.009099599905312061 -2.0967419147491455 -0.017149999737739563 
v 0.28212058544158936 -1.7632437944412231 -0.017149999737739563 
v 0.28212058544158936 -1.7632437944412231 -0.017149999737739563 
v 0.3185234069824219 -1.7632437944412231 0.2561177909374237 
v 0.7007527947425842 -1.06289803981781 -0.017149999737739563 
v 0.755357027053833 -1.06289803981781 0.2035662978887558 
v 0.009099599905312061 1.8385345935821533 0.2035662978887558 
v -0.7735605835914612 1.8385345935821533 0.2035662978887558 
v 0.009099599905312061 1.6384358406066895 0.2035662978887558 
v -0.6643521785736084 1.6384358406066895 0.2035662978887558 
v 0.7735583782196045 1.8385345935821533 0.2035662978887558 
v 0.009099599905312061 1.8385345935821533 0.2035662978887558 
v 0.6643499732017517 1.6384358406066895 0.2035662978887558 
v 0.009099599905312061 1.6384358406066895 0.2035662978887558 
v 1.1557878255844116 0.004295600112527609 0.21407659351825714 
v 1.1557878255844116 1.0047895908355713 0.2035662978887558 
v 0.9919751882553101 -0.029054200276732445 0.2035662978887558 
v 0.9919751882553101 0.8713904023170471 0.2035662978887558 
v 0.9919751882553101 -0.029054200276732445 0.2035662978887558 
v 0.755357027053833 -1.06289803981781 0.2035662978887558 
v 1.1557878255844116 0.004295600112527609 0.21407659351825714 
v 0.8827667832374573 -1.2296470403671265 0.21407659351825714 
v 0.755357027053833 -1.06289803981781 0.2035662978887558 
v 0.3185234069824219 -1.7632437944412231 0.2561177909374237 
v 0.8827667832374573 -1.2296470403671265 0.21407659351825714 
v 0.37312760949134827 -2.0300421714782715 0.26662808656692505 
v 0.3185234069824219 -1.7632437944412231 0.2561177909374237 
v 0.009099599905312061 -2.0967419147491455 0.2561177909374237 
v 0.37312760949134827 -2.0300421714782715 0.26662808656692505 
v 0.009099599905312061 -2.3968899250030518 0.26662808656692505 
v 0.009099599905312061 -2.0967419147491455 0.2561177909374237 
v -0.31852561235427856 -1.7632437944412231 0.2561177909374237 
v 0.009099599905312061 -2.3968899250030518 0.26662808656692505 
v -0.37312981486320496 -2.0300421714782715 0.26662808656692505 
v -0.31852561235427856 -1.7632437944412231 0.2561177909374237 
v -0.7553591728210449 -1.06289803981781 0.2035662978887558 
v -0.37312981486320496 -2.0300421714782715 0.26662808656692505 
v -0.882768988609314 -1.2296470403671265 0.21407659351825714 
v -0.7553591728210449 -1.06289803981781 0.2035662978887558 
v -0.9919773936271667 -0.029054200276732445 0.2035662978887558 
v -0.882768988609314 -1.2296470403671265 0.21407659351825714 
v -1.1557899713516235 0.004295600112527609 0.21407659351825714 
v -0.9919773936271667 -0.029054200276732445 0.2035662978887558 
v -0.9919773936271667 0.8713904023170471 0.2035662978887558 
v -1.1557899713516235 0.004295600112527609 0.21407659351825714 
v -1.1557899713516235 1.0047895908355713 0.2035662978887558 
v -0.6643521785736084 1.6384358406066895 0.2035662978887558 
v -0.7735605835914612 1.8385345935821533 0.2035662978887558 
v -0.9919773936271667 0.8713904023170471 0.2035662978887558 
v -1.1557899713516235 1.0047895908355713 0.2035662978887558 
v -0.8645675778388977 0.8380405902862549 -0.3534795939922333 
v -0.8645675778388977 -0.029054200276732445 -0.3534795939922333 
v 0.864565372467041 0.8380405902862549 -0.3534795939922333 
v 0.864565372467041 -0.029054200276732445 -0.3534795939922333 
v -0.6643521785736084 -1.029548168182373 -0.3534795939922333 
v 0.6643499732017517 -1.029548168182373 -0.3534795939922333 
v 0.6643499732017517 -1.029548168182373 -0.3534795939922333 
v 0.7007527947425842 -1.06289803981781 -0.017149999737739563 
v 0.864565372467041 -0.029054200276732445 -0.3534795939922333 
v 0.937371015548706 -0.029054200276732445 -0.017149999737739563 
v 0.864565372467041 0.8380405902862549 -0.3534795939922333 
v 0.864565372467041 -0.029054200276732445 -0.3534795939922333 
v 0.937371015548706 0.8713904023170471 -0.10123240202665329 
v 0.937371015548706 -0.029054200276732445 -0.017149999737739563 
v 0.937371015548706 0.8713904023170471 -0.10123240202665329 
v -0.9373732209205627 0.8713904023170471 -0.10123240202665329 
v 0.864565372467041 0.8380405902862549 -0.3534795939922333 
v -0.8645675778388977 0.8380405902862549 -0.3534795939922333 
v -0.9373732209205627 0.8713904023170471 -0.10123240202665329 
v -0.9373732209205627 -0.029054200276732445 -0.017149999737739563 
v -0.8645675778388977 0.8380405902862549 -0.3534795939922333 
v -0.8645675778388977 -0.029054200276732445 -0.3534795939922333 
v -0.6643521785736084 -1.029548168182373 -0.3534795939922333 
v -0.8645675778388977 -0.029054200276732445 -0.3534795939922333 
v -0.7007550001144409 -1.06289803981781 -0.017149999737739563 
v -0.9373732209205627 -0.029054200276732445 -0.017149999737739563 
v -0.6643521785736084 -1.029548168182373 -0.3534795939922333 
v -0.7007550001144409 -1.06289803981781 -0.017149999737739563 
v 0.6643499732017517 -1.029548168182373 -0.3534795939922333 
v 0.7007527947425842 -1.06289803981781 -0.017149999737739563 
v -0.9919773936271667 0.8713904023170471 0.2035662978887558 
v -0.9373732209205627 0.8713904023170471 -0.10123240202665329 
v -0.6643521785736084 1.6384358406066895 0.2035662978887558 
v -0.6643521785736084 1.6384358406066895 -0.10123240202665329 
v -0.7553591728210449 -1.06289803981781 0.2035662978887558 
v -0.7007550001144409 -1.06289803981781 -0.017149999737739563 
v -0.9919773936271667 -0.029054200276732445 0.2035662978887558 
v -0.9373732209205627 -0.029054200276732445 -0.017149999737739563 
v -0.6643521785736084 1.6384358406066895 0.2035662978887558 
v -0.6643521785736084 1.6384358406066895 -0.10123240202665329 
v 0.009099599905312061 1.6384358406066895 0.2035662978887558 
v 0.009099599905312061 1.6384358406066895 -0.10123240202665329 
v -0.7007550001144409 -1.06289803981781 -0.017149999737739563 
v -0.7553591728210449 -1.06289803981781 0.2035662978887558 
v -0.28212279081344604 -1.7632437944412231 -0.017149999737739563 
v -0.31852561235427856 -1.7632437944412231 0.2561177909374237 
v -0.28212279081344604 -1.7632437944412231 -0.017149999737739563 
v -0.31852561235427856 -1.7632437944412231 0.2561177909374237 
v 0.009099599905312061 -2.0967419147491455 -0.017149999737739563 
v 0.009099599905312061 -2.0967419147491455 0.2561177909374237 
v -0.9373732209205627 0.8713904023170471 -0.10123240202665329 
v -0.9919773936271667 0.8713904023170471 0.2035662978887558 
v -0.9373732209205627 -0.029054200276732445 -0.017149999737739563 
v -0.9919773936271667 -0.029054200276732445 0.2035662978887558 
v 0.937371015548706 0.8713904023170471 -0.10123240202665329 
v 0.9919751882553101 0.8713904023170471 0.2035662978887558 
v 0.6643499732017517 1.6384358406066895 -0.10123240202665329 
v 0.6643499732017517 1.6384358406066895 0.2035662978887558 
v 0.937371015548706 -0.029054200276732445 -0.017149999737739563 
v 0.9919751882553101 -0.029054200276732445 0.2035662978887558 
v 0.937371015548706 0.8713904023170471 -0.10123240202665329 
v 0.9919751882553101 0.8713904023170471 0.2035662978887558 
v 0.7007527947425842 -1.06289803981781 -0.017149999737739563 
v 0.755357027053833 -1.06289803981781 0.2035662978887558 
v 0.937371015548706 -0.029054200276732445 -0.017149999737739563 
v 0.9919751882553101 -0.029054200276732445 0.2035662978887558 
v 0.009099599905312061 -2.0967419147491455 -0.017149999737739563 
v 0.009099599905312061 -2.0967419147491455 0.2561177909374237 
v 0.28212058544158936 -1.7632437944412231 -0.017149999737739563 
v 0.3185234069824219 -1.7632437944412231 0.2561177909374237 
v 0.6643499732017517 1.6384358406066895 -0.10123240202665329 
v 0.6643499732017517 1.6384358406066895 0.2035662978887558 
v 0.009099599905312061 1.6384358406066895 -0.10123240202665329 
v 0.009099599905312061 1.6384358406066895 0.2035662978887558 
v 1.1557878255844116 1.0047895908355713 0.2035662978887558 
v 0.7735583782196045 1.8385345935821533 0.2035662978887558 
v 0.9919751882553101 0.8713904023170471 0.2035662978887558 
v 0.6643499732017517 1.6384358406066895 0.2035662978887558 
v 0.009099599905312061 1.8385345935821533 -0.3009280860424042 
v 0.7735583782196045 1.8385345935821533 -0.3009280860424042 
v 0.009099599905312061 1.8385345935821533 -0.7738916277885437 
v 0.682551383972168 1.8385345935821533 -0.5636855959892273 
v 0.7917597889900208 -1.2296470403671265 -0.3009280860424042 
v 0.33672478795051575 -2.0300421714782715 -0.3009280860424042 
v 0.7007527947425842 -1.2296470403671265 -0.5636855959892273 
v 0.3003219962120056 -1.7965935468673706 -0.5636855959892273 
v 0.009099599905312061 -2.263490915298462 -0.3009280860424042 
v -0.33672699332237244 -2.0300421714782715 -0.3009280860424042 
v 0.009099599905312061 -1.9299927949905396 -0.7108297944068909 
v -0.3003242015838623 -1.7965935468673706 -0.5636855959892273 
v 0.7735583782196045 1.8385345935821533 -0.3009280860424042 
v 1.0283780097961426 1.0047895908355713 -0.3009280860424042 
v 0.682551383972168 1.8385345935821533 -0.5636855959892273 
v 0.9191696047782898 1.0047895908355713 -0.5636855959892273 
v 1.0283780097961426 1.0047895908355713 -0.3009280860424042 
v 1.0283780097961426 0.004295600112527609 -0.3009280860424042 
v 0.9191696047782898 1.0047895908355713 -0.5636855959892273 
v 0.9191696047782898 0.004295600112527609 -0.5636855959892273 
v 1.0283780097961426 0.004295600112527609 -0.3009280860424042 
v 0.7917597889900208 -1.2296470403671265 -0.3009280860424042 
v 0.9191696047782898 0.004295600112527609 -0.5636855959892273 
v 0.7007527947425842 -1.2296470403671265 -0.5636855959892273 
v -0.33672699332237244 -2.0300421714782715 -0.3009280860424042 
v -0.7917619943618774 -1.2296470403671265 -0.3009280860424042 
v -0.3003242015838623 -1.7965935468673706 -0.5636855959892273 
v -0.7007550001144409 -1.2296470403671265 -0.5636855959892273 
v -0.7917619943618774 -1.2296470403671265 -0.3009280860424042 
v -1.0283801555633545 0.004295600112527609 -0.3009280860424042 
v -0.7007550001144409 -1.2296470403671265 -0.5636855959892273 
v -0.9191718101501465 0.004295600112527609 -0.5636855959892273 
v -1.0283801555633545 0.004295600112527609 -0.3009280860424042 
v -1.0283801555633545 1.0047895908355713 -0.3009280860424042 
v -0.9191718101501465 0.004295600112527609 -0.5636855959892273 
v -0.9191718101501465 1.0047895908355713 -0.5636855959892273 
v 0.33672478795051575 -2.0300421714782715 -0.3009280860424042 
v 0.009099599905312061 -2.263490915298462 -0.3009280860424042 
v 0.3003219962120056 -1.7965935468673706 -0.5636855959892273 
v 0.009099599905312061 -1.9299927949905396 -0.7108297944068909 
v 1.0283780097961426 0.004295600112527609 -0.3009280860424042 
v 1.0283780097961426 1.0047895908355713 -0.3009280860424042 
v 1.1557878255844116 0.004295600112527609 0.21407659351825714 
v 1.1557878255844116 1.0047895908355713 0.2035662978887558 
v 0.009099599905312061 -1.9299927949905396 -0.7108297944068909 
v 0.009099599905312061 -1.2296470403671265 -1.0051182508468628 
v 0.3003219962120056 -1.7965935468673706 -0.5636855959892273 
v 0.7007527947425842 -1.2296470403671265 -0.5636855959892273 
v -0.7735605835914612 1.8385345935821533 0.2035662978887558 
v 0.009099599905312061 1.8385345935821533 0.2035662978887558 
v -0.7735605835914612 1.8385345935821533 -0.3009280860424042 
v 0.009099599905312061 1.8385345935821533 -0.3009280860424042 
v -0.6825535893440247 1.8385345935821533 -0.5636855959892273 
v 0.009099599905312061 1.8385345935821533 -0.7738916277885437 
v 0.009099599905312061 -1.2296470403671265 -1.0051182508468628 
v 0.009099599905312061 -1.9299927949905396 -0.7108297944068909 
v -0.7007550001144409 -1.2296470403671265 -0.5636855959892273 
v -0.3003242015838623 -1.7965935468673706 -0.5636855959892273 
v -0.9191718101501465 1.0047895908355713 -0.5636855959892273 
v -0.6825535893440247 1.8385345935821533 -0.5636855959892273 
v 0.009099599905312061 1.0047895908355713 -1.0051182508468628 
v 0.009099599905312061 1.8385345935821533 -0.7738916277885437 
v 0.7735583782196045 1.8385345935821533 0.2035662978887558 
v 1.1557878255844116 1.0047895908355713 0.2035662978887558 
v 0.7735583782196045 1.8385345935821533 -0.3009280860424042 
v 1.0283780097961426 1.0047895908355713 -0.3009280860424042 
v -1.0283801555633545 1.0047895908355713 -0.3009280860424042 
v -1.0283801555633545 0.004295600112527609 -0.3009280860424042 
v -1.1557899713516235 1.0047895908355713 0.2035662978887558 
v -1.1557899713516235 0.004295600112527609 0.21407659351825714 
v -0.882768988609314 -1.2296470403671265 0.21407659351825714 
v -1.1557899713516235 0.004295600112527609 0.21407659351825714 
v -0.7917619943618774 -1.2296470403671265 -0.3009280860424042 
v -1.0283801555633545 0.004295600112527609 -0.3009280860424042 
v -0.7917619943618774 -1.2296470403671265 -0.3009280860424042 
v -0.33672699332237244 -2.0300421714782715 -0.3009280860424042 
v -0.882768988609314 -1.2296470403671265 0.21407659351825714 
v -0.37312981486320496 -2.0300421714782715 0.26662808656692505 
v 1.1557878255844116 0.004295600112527609 0.21407659351825714 
v 0.8827667832374573 -1.2296470403671265 0.21407659351825714 
v 1.0283780097961426 0.004295600112527609 -0.3009280860424042 
v 0.7917597889900208 -1.2296470403671265 -0.3009280860424042 
v 0.8827667832374573 -1.2296470403671265 0.21407659351825714 
v 0.37312760949134827 -2.0300421714782715 0.26662808656692505 
v 0.7917597889900208 -1.2296470403671265 -0.3009280860424042 
v 0.33672478795051575 -2.0300421714782715 -0.3009280860424042 
v 0.009099599905312061 -2.3968899250030518 0.26662808656692505 
v -0.37312981486320496 -2.0300421714782715 0.26662808656692505 
v 0.009099599905312061 -2.263490915298462 -0.3009280860424042 
v -0.33672699332237244 -2.0300421714782715 -0.3009280860424042 
v 0.009099599905312061 0.004295600112527609 -1.068179965019226 
v 0.009099599905312061 1.0047895908355713 -1.0051182508468628 
v 0.9191696047782898 0.004295600112527609 -0.5636855959892273 
v 0.9191696047782898 1.0047895908355713 -0.5636855959892273 
v 0.009099599905312061 1.0047895908355713 -1.0051182508468628 
v 0.009099599905312061 1.8385345935821533 -0.7738916277885437 
v 0.9191696047782898 1.0047895908355713 -0.5636855959892273 
v 0.682551383972168 1.8385345935821533 -0.5636855959892273 
v 0.009099599905312061 1.0047895908355713 -1.0051182508468628 
v 0.009099599905312061 0.004295600112527609 -1.068179965019226 
v -0.9191718101501465 1.0047895908355713 -0.5636855959892273 
v -0.9191718101501465 0.004295600112527609 -0.5636855959892273 
v -0.7007550001144409 -1.2296470403671265 -0.5636855959892273 
v -0.9191718101501465 0.004295600112527609 -0.5636855959892273 
v 0.009099599905312061 -1.2296470403671265 -1.0051182508468628 
v 0.009099599905312061 0.004295600112527609 -1.068179965019226 
v 0.37312760949134827 -2.0300421714782715 0.26662808656692505 
v 0.009099599905312061 -2.3968899250030518 0.26662808656692505 
v 0.33672478795051575 -2.0300421714782715 -0.3009280860424042 
v 0.009099599905312061 -2.263490915298462 -0.3009280860424042 
vn -0.9238836765289307 0.36481741070747375 -0.11553031951189041 
vn -0.9238836765289307 0.36481741070747375 -0.11553031951189041 
vn -0.9238836765289307 0.36481741070747375 -0.11553031951189041 
vn -0.9238836765289307 0.36481741070747375 -0.11553031951189041 
vn -1.0341130485562108e-13 0.999997615814209 0.002184694167226553 
vn -1.0341130485562108e-13 0.999997615814209 0.002184694167226553 
vn -1.0341130485562108e-13 0.999997615814209 0.002184694167226553 
vn -1.0341130485562108e-13 0.999997615814209 0.002184694167226553 
vn 0.5074307322502136 -0.06775649636983871 -0.8590245246887207 
vn 0.5074307322502136 -0.06775649636983871 -0.8590245246887207 
vn 0.5074307322502136 -0.06775649636983871 -0.8590245246887207 
vn 0.5074307322502136 -0.06775649636983871 -0.8590245246887207 
vn -0.8937824368476868 0.27174267172813416 -0.3568037748336792 
vn -0.8937824368476868 0.27174267172813416 -0.3568037748336792 
vn -0.8937824368476868 0.27174267172813416 -0.3568037748336792 
vn -0.8937824368476868 0.27174267172813416 -0.3568037748336792 
vn 0 0 1 
vn 0 0 1 
vn 0 0 1 
vn 0 0 1 
vn 0 0 1 
vn 0 0 1 
vn 0 0 1 
vn 0 0 1 
vn 0 0 1 
vn 0 0 1 
vn -0.8398612141609192 0.5262870192527771 0.1328723281621933 
vn -0.8398612141609192 0.5262870192527771 0.1328723281621933 
vn -0.8398612141609192 0.5262870192527771 0.1328723281621933 
vn -0.8398612141609192 0.5262870192527771 0.1328723281621933 
vn 0.003627474419772625 -0.03914668411016464 0.9992268681526184 
vn 0.003627474419772625 -0.03914668411016464 0.9992268681526184 
vn 0.003627474419772625 -0.03914668411016464 0.9992268681526184 
vn 0.003627474419772625 -0.03914668411016464 0.9992268681526184 
vn 0.003627474419772625 -0.03914668411016464 0.9992268681526184 
vn 0.003627474419772625 -0.03914668411016464 0.9992268681526184 
vn 0.003627474419772625 -0.03914668411016464 0.9992268681526184 
vn 0.003627474419772625 -0.03914668411016464 0.9992268681526184 
vn -0.05228101462125778 0.0036558446008712053 0.9986256957054138 
vn -0.05228101462125778 0.0036558446008712053 0.9986256957054138 
vn -0.05228101462125778 0.0036558446008712053 0.9986256957054138 
vn -0.05228101462125778 0.0036558446008712053 0.9986256957054138 
vn -0.05126342549920082 0.010896377265453339 0.9986256957054138 
vn -0.05126342549920082 0.010896377265453339 0.9986256957054138 
vn -0.05126342549920082 0.010896377265453339 0.9986256957054138 
vn -0.05126342549920082 0.010896377265453339 0.9986256957054138 
vn 0.03472769632935524 0.050311751663684845 0.9981296062469482 
vn 0.03472769632935524 0.050311751663684845 0.9981296062469482 
vn 0.03472769632935524 0.050311751663684845 0.9981296062469482 
vn 0.03472769632935524 0.050311751663684845 0.9981296062469482 
vn -0.023384787142276764 0.025971436873078346 0.999389111995697 
vn -0.023384787142276764 0.025971436873078346 0.999389111995697 
vn -0.023384787142276764 0.025971436873078346 0.999389111995697 
vn -0.023384787142276764 0.025971436873078346 0.999389111995697 
vn 0.023384787142276764 0.025971436873078346 0.999389111995697 
vn 0.023384787142276764 0.025971436873078346 0.999389111995697 
vn 0.023384787142276764 0.025971436873078346 0.999389111995697 
vn 0.023384787142276764 0.025971436873078346 0.999389111995697 
vn -0.03472769632935524 0.050311751663684845 0.9981296062469482 
vn -0.03472769632935524 0.050311751663684845 0.9981296062469482 
vn -0.03472769632935524 0.050311751663684845 0.9981296062469482 
vn -0.03472769632935524 0.050311751663684845 0.9981296062469482 
vn 0.050378456711769104 0.014445790089666843 0.9986256957054138 
vn 0.050378456711769104 0.014445790089666843 0.9986256957054138 
vn 0.050378456711769104 0.014445790089666843 0.9986256957054138 
vn 0.050378456711769104 0.014445790089666843 0.9986256957054138 
vn 0.051898643374443054 0.007293878588825464 0.9986256957054138 
vn 0.051898643374443054 0.007293878588825464 0.9986256957054138 
vn 0.051898643374443054 0.007293878588825464 0.9986256957054138 
vn 0.051898643374443054 0.007293878588825464 0.9986256957054138 
vn 0.03665957599878311 -0.0142019959166646 0.9992268681526184 
vn 0.03665957599878311 -0.0142019959166646 0.9992268681526184 
vn 0.03665957599878311 -0.0142019959166646 0.9992268681526184 
vn 0.03665957599878311 -0.0142019959166646 0.9992268681526184 
vn 0 0 1 
vn 0 0 1 
vn 0 0 1 
vn 0 0 1 
vn 0 0 1 
vn 0 0 1 
vn -0.965657651424408 0.19496741890907288 0.17173540592193604 
vn -0.965657651424408 0.19496741890907288 0.17173540592193604 
vn -0.965657651424408 0.19496741890907288 0.17173540592193604 
vn -0.965657651424408 0.19496741890907288 0.17173540592193604 
vn -0.9766358137130737 0.011322248727083206 0.21460255980491638 
vn -0.9766358137130737 0.011322248727083206 0.21460255980491638 
vn -0.9766358137130737 0.011322248727083206 0.21460255980491638 
vn -0.9766358137130737 0.011322248727083206 0.21460255980491638 
vn 0.0018879338167607784 -0.9963706135749817 0.08510008454322815 
vn 0.0018879338167607784 -0.9963706135749817 0.08510008454322815 
vn 0.0018879338167607784 -0.9963706135749817 0.08510008454322815 
vn 0.0018879338167607784 -0.9963706135749817 0.08510008454322815 
vn 0.9766722917556763 0.007548259571194649 0.21460255980491638 
vn 0.9766722917556763 0.007548259571194649 0.21460255980491638 
vn 0.9766722917556763 0.007548259571194649 0.21460255980491638 
vn 0.9766722917556763 0.007548259571194649 0.21460255980491638 
vn 0.965657651424408 0.19496741890907288 0.17173540592193604 
vn 0.965657651424408 0.19496741890907288 0.17173540592193604 
vn 0.965657651424408 0.19496741890907288 0.17173540592193604 
vn 0.965657651424408 0.19496741890907288 0.17173540592193604 
vn -0.0018864546436816454 0.9979918599128723 0.0633138045668602 
vn -0.0018864546436816454 0.9979918599128723 0.0633138045668602 
vn -0.0018864546436816454 0.9979918599128723 0.0633138045668602 
vn -0.0018864546436816454 0.9979918599128723 0.0633138045668602 
vn 0.9277178049087524 -0.3613038659095764 0.09380380809307098 
vn 0.9277178049087524 -0.3613038659095764 0.09380380809307098 
vn 0.9277178049087524 -0.3613038659095764 0.09380380809307098 
vn 0.9277178049087524 -0.3613038659095764 0.09380380809307098 
vn 0.950981616973877 0.209593266248703 0.22738653421401978 
vn 0.950981616973877 0.209593266248703 0.22738653421401978 
vn 0.950981616973877 0.209593266248703 0.22738653421401978 
vn 0.950981616973877 0.209593266248703 0.22738653421401978 
vn 3.097898456858039e-13 -0.999997615814209 0.002184694167226553 
vn 3.097898456858039e-13 -0.999997615814209 0.002184694167226553 
vn 3.097898456858039e-13 -0.999997615814209 0.002184694167226553 
vn 3.097898456858039e-13 -0.999997615814209 0.002184694167226553 
vn 0.8418592214584351 0.5230850577354431 0.1328723281621933 
vn 0.8418592214584351 0.5230850577354431 0.1328723281621933 
vn 0.8418592214584351 0.5230850577354431 0.1328723281621933 
vn 0.8418592214584351 0.5230850577354431 0.1328723281621933 
vn 0.7319134473800659 0.6798524260520935 0.04586252197623253 
vn 0.7319134473800659 0.6798524260520935 0.04586252197623253 
vn 0.7319134473800659 0.6798524260520935 0.04586252197623253 
vn 0.7319134473800659 0.6798524260520935 0.04586252197623253 
vn 0.9736877083778381 0.015088409185409546 0.22738653421401978 
vn 0.9736877083778381 0.015088409185409546 0.22738653421401978 
vn 0.9736877083778381 0.015088409185409546 0.22738653421401978 
vn 0.9736877083778381 0.015088409185409546 0.22738653421401978 
vn -0.9263419508934021 -0.36481696367263794 0.09380380809307098 
vn -0.9263419508934021 -0.36481696367263794 0.09380380809307098 
vn -0.9263419508934021 -0.36481696367263794 0.09380380809307098 
vn -0.9263419508934021 -0.36481696367263794 0.09380380809307098 
vn -0.9737388491630554 0.011316505260765553 0.22738653421401978 
vn -0.9737388491630554 0.011316505260765553 0.22738653421401978 
vn -0.9737388491630554 0.011316505260765553 0.22738653421401978 
vn -0.9737388491630554 0.011316505260765553 0.22738653421401978 
vn -0.9517863988876343 0.20590786635875702 0.22738653421401978 
vn -0.9517863988876343 0.20590786635875702 0.22738653421401978 
vn -0.9517863988876343 0.20590786635875702 0.22738653421401978 
vn -0.9517863988876343 0.20590786635875702 0.22738653421401978 
vn -0.7293380498886108 0.6826145648956299 0.04586252197623253 
vn -0.7293380498886108 0.6826145648956299 0.04586252197623253 
vn -0.7293380498886108 0.6826145648956299 0.04586252197623253 
vn -0.7293380498886108 0.6826145648956299 0.04586252197623253 
vn 3.097898456858039e-13 -0.999997615814209 0.002184694167226553 
vn 3.097898456858039e-13 -0.999997615814209 0.002184694167226553 
vn 3.097898456858039e-13 -0.999997615814209 0.002184694167226553 
vn 3.097898456858039e-13 -0.999997615814209 0.002184694167226553 
vn -0.03665957599878311 -0.0142019959166646 0.9992268681526184 
vn -0.03665957599878311 -0.0142019959166646 0.9992268681526184 
vn -0.03665957599878311 -0.0142019959166646 0.9992268681526184 
vn -0.03665957599878311 -0.0142019959166646 0.9992268681526184 
vn -1.0341130485562108e-13 0.999997615814209 -0.002184694167226553 
vn -1.0341130485562108e-13 0.999997615814209 -0.002184694167226553 
vn -1.0341130485562108e-13 0.999997615814209 -0.002184694167226553 
vn -1.0341130485562108e-13 0.999997615814209 -0.002184694167226553 
vn 0.7796972393989563 -0.48067790269851685 -0.401274174451828 
vn 0.7796972393989563 -0.48067790269851685 -0.401274174451828 
vn 0.7796972393989563 -0.48067790269851685 -0.401274174451828 
vn 0.7796972393989563 -0.48067790269851685 -0.401274174451828 
vn -0.5137370228767395 -0.6390135288238525 -0.5724822878837585 
vn -0.5137370228767395 -0.6390135288238525 -0.5724822878837585 
vn -0.5137370228767395 -0.6390135288238525 -0.5724822878837585 
vn -0.5137370228767395 -0.6390135288238525 -0.5724822878837585 
vn 0.8948737978935242 0.2681266665458679 -0.3568037748336792 
vn 0.8948737978935242 0.2681266665458679 -0.3568037748336792 
vn 0.8948737978935242 0.2681266665458679 -0.3568037748336792 
vn 0.8948737978935242 0.2681266665458679 -0.3568037748336792 
vn 0.9088051319122314 0 -0.417220801115036 
vn 0.9088051319122314 0 -0.417220801115036 
vn 0.9088051319122314 0 -0.417220801115036 
vn 0.9088051319122314 0 -0.417220801115036 
vn 0.9132274389266968 -0.1727461814880371 -0.3690181374549866 
vn 0.9132274389266968 -0.1727461814880371 -0.3690181374549866 
vn 0.9132274389266968 -0.1727461814880371 -0.3690181374549866 
vn 0.9132274389266968 -0.1727461814880371 -0.3690181374549866 
vn -0.7796972393989563 -0.48067790269851685 -0.401274174451828 
vn -0.7796972393989563 -0.48067790269851685 -0.401274174451828 
vn -0.7796972393989563 -0.48067790269851685 -0.401274174451828 
vn -0.7796972393989563 -0.48067790269851685 -0.401274174451828 
vn -0.9139219522476196 -0.16903327405452728 -0.3690181374549866 
vn -0.9139219522476196 -0.16903327405452728 -0.3690181374549866 
vn -0.9139219522476196 -0.16903327405452728 -0.3690181374549866 
vn -0.9139219522476196 -0.16903327405452728 -0.3690181374549866 
vn -0.9088051319122314 -1.8796191003384727e-13 -0.417220801115036 
vn -0.9088051319122314 -1.8796191003384727e-13 -0.417220801115036 
vn -0.9088051319122314 -1.8796191003384727e-13 -0.417220801115036 
vn -0.9088051319122314 -1.8796191003384727e-13 -0.417220801115036 
vn 0.5137370228767395 -0.6390135288238525 -0.5724822878837585 
vn 0.5137370228767395 -0.6390135288238525 -0.5724822878837585 
vn 0.5137370228767395 -0.6390135288238525 -0.5724822878837585 
vn 0.5137370228767395 -0.6390135288238525 -0.5724822878837585 
vn 0.9717803597450256 0 -0.23588760197162628 
vn 0.9717803597450256 0 -0.23588760197162628 
vn 0.9717803597450256 0 -0.23588760197162628 
vn 0.9717803597450256 0 -0.23588760197162628 
vn 0.512507975101471 -0.34244686365127563 -0.7874425053596497 
vn 0.512507975101471 -0.34244686365127563 -0.7874425053596497 
vn 0.512507975101471 -0.34244686365127563 -0.7874425053596497 
vn 0.512507975101471 -0.34244686365127563 -0.7874425053596497 
vn -1.0341130485562108e-13 0.999997615814209 0.002184694167226553 
vn -1.0341130485562108e-13 0.999997615814209 0.002184694167226553 
vn -1.0341130485562108e-13 0.999997615814209 0.002184694167226553 
vn -1.0341130485562108e-13 0.999997615814209 0.002184694167226553 
vn -1.0341130485562108e-13 0.999997615814209 0.002184694167226553 
vn -1.0341130485562108e-13 0.999997615814209 0.002184694167226553 
vn -0.512507975101471 -0.34244686365127563 -0.7874425053596497 
vn -0.512507975101471 -0.34244686365127563 -0.7874425053596497 
vn -0.512507975101471 -0.34244686365127563 -0.7874425053596497 
vn -0.512507975101471 -0.34244686365127563 -0.7874425053596497 
vn -0.3772205114364624 0.18285992741584778 -0.9078915119171143 
vn -0.3772205114364624 0.18285992741584778 -0.9078915119171143 
vn -0.3772205114364624 0.18285992741584778 -0.9078915119171143 
vn -0.3772205114364624 0.18285992741584778 -0.9078915119171143 
vn 0.9224911332130432 0.3683243989944458 -0.11553031951189041 
vn 0.9224911332130432 0.3683243989944458 -0.11553031951189041 
vn 0.9224911332130432 0.3683243989944458 -0.11553031951189041 
vn 0.9224911332130432 0.3683243989944458 -0.11553031951189041 
vn -0.9717730283737183 -0.0037737085949629545 -0.23588760197162628 
vn -0.9717730283737183 -0.0037737085949629545 -0.23588760197162628 
vn -0.9717730283737183 -0.0037737085949629545 -0.23588760197162628 
vn -0.9717730283737183 -0.0037737085949629545 -0.23588760197162628 
vn -0.9573649764060974 -0.20246461033821106 -0.2060592919588089 
vn -0.9573649764060974 -0.20246461033821106 -0.2060592919588089 
vn -0.9573649764060974 -0.20246461033821106 -0.2060592919588089 
vn -0.9573649764060974 -0.20246461033821106 -0.2060592919588089 
vn -0.8550254702568054 -0.5074597597122192 -0.10684575140476227 
vn -0.8550254702568054 -0.5074597597122192 -0.10684575140476227 
vn -0.8550254702568054 -0.5074597597122192 -0.10684575140476227 
vn -0.8550254702568054 -0.5074597597122192 -0.10684575140476227 
vn 0.9573649764060974 -0.20246461033821106 -0.2060592919588089 
vn 0.9573649764060974 -0.20246461033821106 -0.2060592919588089 
vn 0.9573649764060974 -0.20246461033821106 -0.2060592919588089 
vn 0.9573649764060974 -0.20246461033821106 -0.2060592919588089 
vn 0.8530915975570679 -0.5107041597366333 -0.10684575140476227 
vn 0.8530915975570679 -0.5107041597366333 -0.10684575140476227 
vn 0.8530915975570679 -0.5107041597366333 -0.10684575140476227 
vn 0.8530915975570679 -0.5107041597366333 -0.10684575140476227 
vn -0.6451659798622131 -0.7571357488632202 -0.10250037163496017 
vn -0.6451659798622131 -0.7571357488632202 -0.10250037163496017 
vn -0.6451659798622131 -0.7571357488632202 -0.10250037163496017 
vn -0.6451659798622131 -0.7571357488632202 -0.10250037163496017 
vn 0.4617837071418762 0.022685980424284935 -0.8867024183273315 
vn 0.4617837071418762 0.022685980424284935 -0.8867024183273315 
vn 0.4617837071418762 0.022685980424284935 -0.8867024183273315 
vn 0.4617837071418762 0.022685980424284935 -0.8867024183273315 
vn 0.3772205114364624 0.18285992741584778 -0.9078915119171143 
vn 0.3772205114364624 0.18285992741584778 -0.9078915119171143 
vn 0.3772205114364624 0.18285992741584778 -0.9078915119171143 
vn 0.3772205114364624 0.18285992741584778 -0.9078915119171143 
vn -0.4617837071418762 0.022685980424284935 -0.8867024183273315 
vn -0.4617837071418762 0.022685980424284935 -0.8867024183273315 
vn -0.4617837071418762 0.022685980424284935 -0.8867024183273315 
vn -0.4617837071418762 0.022685980424284935 -0.8867024183273315 
vn -0.5074307322502136 -0.06775649636983871 -0.8590245246887207 
vn -0.5074307322502136 -0.06775649636983871 -0.8590245246887207 
vn -0.5074307322502136 -0.06775649636983871 -0.8590245246887207 
vn -0.5074307322502136 -0.06775649636983871 -0.8590245246887207 
vn 0.6451659798622131 -0.7571357488632202 -0.10250037163496017 
vn 0.6451659798622131 -0.7571357488632202 -0.10250037163496017 
vn 0.6451659798622131 -0.7571357488632202 -0.10250037163496017 
vn 0.6451659798622131 -0.7571357488632202 -0.10250037163496017 
vt 0.7120360136032104 0.5295968055725098 
vt 0.8399646878242493 0.5209989547729492 
vt 0.7289461493492126 0.6672841310501099 
vt 0.855526864528656 0.6408849358558655 
vt 0.855526864528656 0.6408849358558655 
vt 1.0023261308670044 0.6125482320785522 
vt 0.8399646878242493 0.5209989547729492 
vt 0.9413027763366699 0.44495001435279846 
vt 0.255463182926178 0.9910975098609924 
vt 0.5723438262939453 0.9961835741996765 
vt 0.305948406457901 0.781720757484436 
vt 0.5560464262962341 0.7846270799636841 
vt 0.8724369406700134 0.739094614982605 
vt 0.7414448857307434 0.7832950353622437 
vt 0.855526864528656 0.6408849358558655 
vt 0.7289461493492126 0.6672841310501099 
vt 0.9862738251686096 0.11108558624982834 
vt 0.8987824320793152 0.30738383531570435 
vt 0.8501352071762085 0.005852290894836187 
vt 0.8081050515174866 0.3833116292953491 
vt 0.6875286102294922 0.3896086812019348 
vt 0.33842071890830994 0.39747998118400574 
vt 0.16294774413108826 0.3687799870967865 
vt 0.21870207786560059 0.006336679216474295 
vt 0.07067737728357315 0.34637704491615295 
vt 0.12189783900976181 0.15649695694446564 
vt 0.16294774413108826 0.3686589002609253 
vt 0.15743356943130493 0.4926622211933136 
vt 0.33842071890830994 0.39747998118400574 
vt 0.3358474373817444 0.5093736052513123 
vt 0.9413027763366699 0.44495001435279846 
vt 0.8399646878242493 0.5209989547729492 
vt 0.9171629548072815 0.41685551404953003 
vt 0.8258728981018066 0.49060359597206116 
vt 0.8399646878242493 0.5209989547729492 
vt 0.9413027763366699 0.44495001435279846 
vt 0.8258728981018066 0.49060359597206116 
vt 0.9171629548072815 0.41697660088539124 
vt 0.5489392876625061 0.5396478772163391 
vt 0.7120360136032104 0.5295968055725098 
vt 0.5426899194717407 0.5133697986602783 
vt 0.6903469562530518 0.5029554963111877 
vt 0.5426899194717407 0.5133697986602783 
vt 0.3358474373817444 0.5093736052513123 
vt 0.5489392876625061 0.5396478772163391 
vt 0.31379079818725586 0.5431596636772156 
vt 0.3358474373817444 0.5093736052513123 
vt 0.15743356943130493 0.4926622211933136 
vt 0.31379079818725586 0.5431596636772156 
vt 0.11393293738365173 0.5339562892913818 
vt 0.15743356943130493 0.4926622211933136 
vt 0.056830696761608124 0.4749820828437805 
vt 0.11393293738365173 0.5339562892913818 
vt -0.0013743799645453691 0.5229364633560181 
vt 0.056830696761608124 0.4749820828437805 
vt 0.15743356943130493 0.4926622211933136 
vt -0.0013743799645453691 0.5229364633560181 
vt 0.11393293738365173 0.5339562892913818 
vt 0.15743356943130493 0.4926622211933136 
vt 0.3358474373817444 0.5093736052513123 
vt 0.11393293738365173 0.5339562892913818 
vt 0.31379079818725586 0.5431596636772156 
vt 0.3358474373817444 0.5093736052513123 
vt 0.5426899194717407 0.5133697986602783 
vt 0.31379079818725586 0.5431596636772156 
vt 0.5489392876625061 0.5396478772163391 
vt 0.5426899194717407 0.5133697986602783 
vt 0.6903469562530518 0.5029554963111877 
vt 0.5489392876625061 0.5396478772163391 
vt 0.7120360136032104 0.5295968055725098 
vt 0.8258728981018066 0.49060359597206116 
vt 0.8399646878242493 0.5209989547729492 
vt 0.6903469562530518 0.5029554963111877 
vt 0.7120360136032104 0.5295968055725098 
vt 0.6635113954544067 0.34770911931991577 
vt 0.5401166081428528 0.35909223556518555 
vt 0.7877638936042786 0.004278029780834913 
vt 0.5657268762588501 0.006457775831222534 
vt 0.380083292722702 0.337052583694458 
vt 0.30839917063713074 0.005004611797630787 
vt 0.380083292722702 0.337052583694458 
vt 0.33842071890830994 0.39747998118400574 
vt 0.5401166081428528 0.35909223556518555 
vt 0.5409743785858154 0.4098318815231323 
vt 0.6635113954544067 0.34770911931991577 
vt 0.5401166081428528 0.35909223556518555 
vt 0.6875286102294922 0.3896086812019348 
vt 0.5409743785858154 0.4098318815231323 
vt 0.8501352071762085 0.005852290894836187 
vt 0.6875286102294922 0.3896086812019348 
vt 0.7877638936042786 0.004278029780834913 
vt 0.6635113954544067 0.34770911931991577 
vt 0.6875286102294922 0.3896086812019348 
vt 0.5409743785858154 0.4098318815231323 
vt 0.6635113954544067 0.34770911931991577 
vt 0.5401166081428528 0.35909223556518555 
vt 0.380083292722702 0.337052583694458 
vt 0.5401166081428528 0.35909223556518555 
vt 0.33842071890830994 0.39747998118400574 
vt 0.5409743785858154 0.4098318815231323 
vt 0.380083292722702 0.337052583694458 
vt 0.33842071890830994 0.39747998118400574 
vt 0.30839917063713074 0.005004611797630787 
vt 0.21870207786560059 0.006336679216474295 
vt 0.6903469562530518 0.5029554963111877 
vt 0.6875286102294922 0.3896086812019348 
vt 0.8258728981018066 0.49060359597206116 
vt 0.8081050515174866 0.3833116292953491 
vt 0.3358474373817444 0.5093736052513123 
vt 0.33842071890830994 0.39747998118400574 
vt 0.5426899194717407 0.5133697986602783 
vt 0.5409743785858154 0.4098318815231323 
vt 0.8258728981018066 0.49060359597206116 
vt 0.8081050515174866 0.3833116292953491 
vt 0.9171629548072815 0.41685551404953003 
vt 0.8987824320793152 0.30738383531570435 
vt 0.33842071890830994 0.39747998118400574 
vt 0.3358474373817444 0.5093736052513123 
vt 0.16294774413108826 0.3687799870967865 
vt 0.15743356943130493 0.4926622211933136 
vt 0.16294774413108826 0.3687799870967865 
vt 0.15743356943130493 0.4926622211933136 
vt 0.07067737728357315 0.34637704491615295 
vt 0.056830696761608124 0.4749820828437805 
vt 0.6875286102294922 0.3896086812019348 
vt 0.6903469562530518 0.5029554963111877 
vt 0.5409743785858154 0.4098318815231323 
vt 0.5426899194717407 0.5133697986602783 
vt 0.6875286102294922 0.3896086812019348 
vt 0.6903469562530518 0.5029554963111877 
vt 0.8081050515174866 0.3833116292953491 
vt 0.8258728981018066 0.49060359597206116 
vt 0.5409743785858154 0.4098318815231323 
vt 0.5426899194717407 0.5133697986602783 
vt 0.6875286102294922 0.3896086812019348 
vt 0.6903469562530518 0.5029554963111877 
vt 0.33842071890830994 0.39747998118400574 
vt 0.3358474373817444 0.5093736052513123 
vt 0.5409743785858154 0.4098318815231323 
vt 0.5426899194717407 0.5133697986602783 
vt 0.07067737728357315 0.34637704491615295 
vt 0.056830696761608124 0.4749820828437805 
vt 0.16294774413108826 0.3686589002609253 
vt 0.15743356943130493 0.4926622211933136 
vt 0.8081050515174866 0.3833116292953491 
vt 0.8258728981018066 0.49060359597206116 
vt 0.8987824320793152 0.30738383531570435 
vt 0.9171629548072815 0.41697660088539124 
vt 0.7120360136032104 0.5295968055725098 
vt 0.8399646878242493 0.5209989547729492 
vt 0.6903469562530518 0.5029554963111877 
vt 0.8258728981018066 0.49060359597206116 
vt 1.0023261308670044 0.6125482320785522 
vt 0.855526864528656 0.6408849358558655 
vt 1.0023261308670044 0.8087254166603088 
vt 0.8724369406700134 0.739094614982605 
vt 0.3088892996311188 0.6838743686676025 
vt 0.11184980720281601 0.6877495050430298 
vt 0.305948406457901 0.781720757484436 
vt 0.15767864882946014 0.8009752035140991 
vt 0.015168114565312862 0.7218988537788391 
vt 0.11184980720281601 0.6877495050430298 
vt 0.07974511384963989 0.8792038559913635 
vt 0.15767864882946014 0.8009752035140991 
vt 0.855526864528656 0.6408849358558655 
vt 0.7289461493492126 0.6672841310501099 
vt 0.8724369406700134 0.739094614982605 
vt 0.7414448857307434 0.7832950353622437 
vt 0.7289461493492126 0.6672841310501099 
vt 0.5522477626800537 0.6821790337562561 
vt 0.7414448857307434 0.7832950353622437 
vt 0.5560464262962341 0.7846270799636841 
vt 0.5522477626800537 0.6821790337562561 
vt 0.3088892996311188 0.6838743686676025 
vt 0.5560464262962341 0.7846270799636841 
vt 0.305948406457901 0.781720757484436 
vt 0.11184980720281601 0.6877495050430298 
vt 0.3088892996311188 0.6838743686676025 
vt 0.15767864882946014 0.8009752035140991 
vt 0.305948406457901 0.781720757484436 
vt 0.3088892996311188 0.6838743686676025 
vt 0.5522477626800537 0.6821790337562561 
vt 0.305948406457901 0.781720757484436 
vt 0.5560464262962341 0.7846270799636841 
vt 0.5522477626800537 0.6821790337562561 
vt 0.7289461493492126 0.6672841310501099 
vt 0.5560464262962341 0.7846270799636841 
vt 0.7414448857307434 0.7832950353622437 
vt 0.11184980720281601 0.6877495050430298 
vt 0.015168114565312862 0.7218988537788391 
vt 0.15767864882946014 0.8009752035140991 
vt 0.07974511384963989 0.8792038559913635 
vt 0.5522477626800537 0.6821790337562561 
vt 0.7289461493492126 0.6672841310501099 
vt 0.5489392876625061 0.5396478772163391 
vt 0.7120360136032104 0.5295968055725098 
vt 0.07974511384963989 0.8792038559913635 
vt 0.255463182926178 0.9910975098609924 
vt 0.15767864882946014 0.8009752035140991 
vt 0.305948406457901 0.781720757484436 
vt 0.8399646878242493 0.5209989547729492 
vt 0.9413027763366699 0.44495001435279846 
vt 0.855526864528656 0.6408849358558655 
vt 1.0023261308670044 0.6125482320785522 
vt 0.8724369406700134 0.739094614982605 
vt 1.0023261308670044 0.8087254166603088 
vt 0.255463182926178 0.9910975098609924 
vt 0.07974511384963989 0.8792038559913635 
vt 0.305948406457901 0.781720757484436 
vt 0.15767864882946014 0.8009752035140991 
vt 0.7414448857307434 0.7832950353622437 
vt 0.8724369406700134 0.739094614982605 
vt 0.8482971787452698 0.9878278374671936 
vt 1.0023261308670044 0.8087254166603088 
vt 0.8399646878242493 0.5209989547729492 
vt 0.7120360136032104 0.5295968055725098 
vt 0.855526864528656 0.6408849358558655 
vt 0.7289461493492126 0.6672841310501099 
vt 0.7289461493492126 0.6672841310501099 
vt 0.5522477626800537 0.6821790337562561 
vt 0.7120360136032104 0.5295968055725098 
vt 0.5489392876625061 0.5396478772163391 
vt 0.31379079818725586 0.5431596636772156 
vt 0.5489392876625061 0.5396478772163391 
vt 0.3088892996311188 0.6838743686676025 
vt 0.5522477626800537 0.6821790337562561 
vt 0.3088892996311188 0.6838743686676025 
vt 0.11184980720281601 0.6877495050430298 
vt 0.31379079818725586 0.5431596636772156 
vt 0.11393293738365173 0.5339562892913818 
vt 0.5489392876625061 0.5396478772163391 
vt 0.31379079818725586 0.5431596636772156 
vt 0.5522477626800537 0.6821790337562561 
vt 0.3088892996311188 0.6838743686676025 
vt 0.31379079818725586 0.5431596636772156 
vt 0.11393293738365173 0.5339562892913818 
vt 0.3088892996311188 0.6838743686676025 
vt 0.11184980720281601 0.6877495050430298 
vt -0.0013743799645453691 0.5229364633560181 
vt 0.11393293738365173 0.5339562892913818 
vt 0.015168114565312862 0.7218988537788391 
vt 0.11184980720281601 0.6877495050430298 
vt 0.5723438262939453 0.9961835741996765 
vt 0.8482971787452698 0.9878278374671936 
vt 0.5560464262962341 0.7846270799636841 
vt 0.7414448857307434 0.7832950353622437 
vt 0.8482971787452698 0.9878278374671936 
vt 1.0023261308670044 0.8087254166603088 
vt 0.7414448857307434 0.7832950353622437 
vt 0.8724369406700134 0.739094614982605 
vt 0.8482971787452698 0.9878278374671936 
vt 0.5723438262939453 0.9961835741996765 
vt 0.7414448857307434 0.7832950353622437 
vt 0.5560464262962341 0.7846270799636841 
vt 0.305948406457901 0.781720757484436 
vt 0.5560464262962341 0.7846270799636841 
vt 0.255463182926178 0.9910975098609924 
vt 0.5723438262939453 0.9961835741996765 
vt 0.11393293738365173 0.5339562892913818 
vt -0.0013743799645453691 0.5229364633560181 
vt 0.11184980720281601 0.6877495050430298 
vt 0.015168114565312862 0.7218988537788391 
s on 
f 1/1/1 2/2/2 3/3/3 
f 2/2/2 4/4/4 3/3/3 
f 3/3/3 4/4/4 4/4/4 
f 4/4/4 5/5/5 4/4/4 
f 4/4/4 5/5/5 5/5/5 
f 5/5/5 6/6/6 5/5/5 
f 5/5/5 6/6/6 7/7/7 
f 6/6/6 8/8/8 7/7/7 
f 7/7/7 8/8/8 8/8/8 
f 8/8/8 9/9/9 8/8/8 
f 8/8/8 9/9/9 9/9/9 
f 9/9/9 10/10/10 9/9/9 
f 9/9/9 10/10/10 11/11/11 
f 10/10/10 12/12/12 11/11/11 
f 11/11/11 12/12/12 12/12/12 
f 12/12/12 13/13/13 12/12/12 
f 12/12/12 13/13/13 13/13/13 
f 13/13/13 14/14/14 13/13/13 
f 13/13/13 14/14/14 15/15/15 
f 14/14/14 16/16/16 15/15/15 
f 15/15/15 16/16/16 16/16/16 
f 16/16/16 17/17/17 16/16/16 
f 16/16/16 17/17/17 17/17/17 
f 17/17/17 18/18/18 17/17/17 
f 17/17/17 18/18/18 19/19/19 
f 18/18/18 20/20/20 19/19/19 
f 19/19/19 20/20/20 21/21/21 
f 20/20/20 21/21/21 21/21/21 
f 21/21/21 21/21/21 22/22/22 
f 21/21/21 22/22/22 22/22/22 
f 22/22/22 22/22/22 22/22/22 
f 22/22/22 23/23/23 22/22/22 
f 22/22/22 23/23/23 24/24/24 
f 23/23/23 25/25/25 24/24/24 
f 24/24/24 25/25/25 26/26/26 
f 25/25/25 26/26/26 26/26/26 
f 26/26/26 26/26/26 27/27/27 
f 26/26/26 27/27/27 27/27/27 
f 27/27/27 27/27/27 27/27/27 
f 27/27/27 28/28/28 27/27/27 
f 27/27/27 28/28/28 29/29/29 
f 28/28/28 30/30/30 29/29/29 
f 29/29/29 30/30/30 30/30/30 
f 30/30/30 31/31/31 30/30/30 
f 30/30/30 31/31/31 31/31/31 
f 31/31/31 32/32/32 31/31/31 
f 31/31/31 32/32/32 33/33/33 
f 32/32/32 34/34/34 33/33/33 
f 33/33/33 34/34/34 34/34/34 
f 34/34/34 35/35/35 34/34/34 
f 34/34/34 35/35/35 35/35/35 
f 35/35/35 36/36/36 35/35/35 
f 35/35/35 36/36/36 37/37/37 
f 36/36/36 38/38/38 37/37/37 
f 37/37/37 38/38/38 38/38/38 
f 38/38/38 39/39/39 38/38/38 
f 38/38/38 39/39/39 39/39/39 
f 39/39/39 40/40/40 39/39/39 
f 39/39/39 40/40/40 41/41/41 
f 40/40/40 42/42/42 41/41/41 
f 41/41/41 42/42/42 42/42/42 
f 42/42/42 43/43/43 42/42/42 
f 42/42/42 43/43/43 43/43/43 
f 43/43/43 44/44/44 43/43/43 
f 43/43/43 44/44/44 45/45/45 
f 44/44/44 46/46/46 45/45/45 
f 45/45/45 46/46/46 46/46/46 
f 46/46/46 47/47/47 46/46/46 
f 46/46/46 47/47/47 47/47/47 
f 47/47/47 48/48/48 47/47/47 
f 47/47/47 48/48/48 49/49/49 
f 48/48/48 50/50/50 49/49/49 
f 49/49/49 50/50/50 50/50/50 
f 50/50/50 51/51/51 50/50/50 
f 50/50/50 51/51/51 51/51/51 
f 51/51/51 52/52/52 51/51/51 
f 51/51/51 52/52/52 53/53/53 
f 52/52/52 54/54/54 53/53/53 
f 53/53/53 54/54/54 54/54/54 
f 54/54/54 55/55/55 54/54/54 
f 54/54/54 55/55/55 55/55/55 
f 55/55/55 56/56/56 55/55/55 
f 55/55/55 56/56/56 57/57/57 
f 56/56/56 58/58/58 57/57/57 
f 57/57/57 58/58/58 58/58/58 
f 58/58/58 59/59/59 58/58/58 
f 58/58/58 59/59/59 59/59/59 
f 59/59/59 60/60/60 59/59/59 
f 59/59/59 60/60/60 61/61/61 
f 60/60/60 62/62/62 61/61/61 
f 61/61/61 62/62/62 62/62/62 
f 62/62/62 63/63/63 62/62/62 
f 62/62/62 63/63/63 63/63/63 
f 63/63/63 64/64/64 63/63/63 
f 63/63/63 64/64/64 65/65/65 
f 64/64/64 66/66/66 65/65/65 
f 65/65/65 66/66/66 66/66/66 
f 66/66/66 67/67/67 66/66/66 
f 66/66/66 67/67/67 67/67/67 
f 67/67/67 68/68/68 67/67/67 
f 67/67/67 68/68/68 69/69/69 
f 68/68/68 70/70/70 69/69/69 
f 69/69/69 70/70/70 70/70/70 
f 70/70/70 71/71/71 70/70/70 
f 70/70/70 71/71/71 71/71/71 
f 71/71/71 72/72/72 71/71/71 
f 71/71/71 72/72/72 73/73/73 
f 72/72/72 74/74/74 73/73/73 
f 73/73/73 74/74/74 74/74/74 
f 74/74/74 75/75/75 74/74/74 
f 74/74/74 75/75/75 75/75/75 
f 75/75/75 76/76/76 75/75/75 
f 75/75/75 76/76/76 77/77/77 
f 76/76/76 78/78/78 77/77/77 
f 77/77/77 78/78/78 78/78/78 
f 78/78/78 76/76/76 78/78/78 
f 78/78/78 76/76/76 76/76/76 
f 76/76/76 79/79/79 76/76/76 
f 76/76/76 79/79/79 78/78/78 
f 79/79/79 80/80/80 78/78/78 
f 78/78/78 80/80/80 80/80/80 
f 80/80/80 81/81/81 80/80/80 
f 80/80/80 81/81/81 81/81/81 
f 81/81/81 82/82/82 81/81/81 
f 81/81/81 82/82/82 83/83/83 
f 82/82/82 84/84/84 83/83/83 
f 83/83/83 84/84/84 84/84/84 
f 84/84/84 85/85/85 84/84/84 
f 84/84/84 85/85/85 85/85/85 
f 85/85/85 86/86/86 85/85/85 
f 85/85/85 86/86/86 87/87/87 
f 86/86/86 88/88/88 87/87/87 
f 87/87/87 88/88/88 88/88/88 
f 88/88/88 89/89/89 88/88/88 
f 88/88/88 89/89/89 89/89/89 
f 89/89/89 90/90/90 89/89/89 
f 89/89/89 90/90/90 91/91/91 
f 90/90/90 92/92/92 91/91/91 
f 91/91/91 92/92/92 92/92/92 
f 92/92/92 93/93/93 92/92/92 
f 92/92/92 93/93/93 93/93/93 
f 93/93/93 94/94/94 93/93/93 
f 93/93/93 94/94/94 95/95/95 
f 94/94/94 96/96/96 95/95/95 
f 95/95/95 96/96/96 96/96/96 
f 96/96/96 97/97/97 96/96/96 
f 96/96/96 97/97/97 97/97/97 
f 97/97/97 98/98/98 97/97/97 
f 97/97/97 98/98/98 99/99/99 
f 98/98/98 100/100/100 99/99/99 
f 99/99/99 100/100/100 100/100/100 
f 100/100/100 101/101/101 100/100/100 
f 100/100/100 101/101/101 101/101/101 
f 101/101/101 102/102/102 101/101/101 
f 101/101/101 102/102/102 103/103/103 
f 102/102/102 104/104/104 103/103/103 
f 103/103/103 104/104/104 104/104/104 
f 104/104/104 105/105/105 104/104/104 
f 104/104/104 105/105/105 105/105/105 
f 105/105/105 106/106/106 105/105/105 
f 105/105/105 106/106/106 107/107/107 
f 106/106/106 108/108/108 107/107/107 
f 107/107/107 108/108/108 108/108/108 
f 108/108/108 109/109/109 108/108/108 
f 108/108/108 109/109/109 109/109/109 
f 109/109/109 110/110/110 109/109/109 
f 109/109/109 110/110/110 111/111/111 
f 110/110/110 112/112/112 111/111/111 
f 111/111/111 112/112/112 112/112/112 
f 112/112/112 113/113/113 112/112/112 
f 112/112/112 113/113/113 113/113/113 
f 113/113/113 114/114/114 113/113/113 
f 113/113/113 114/114/114 115/115/115 
f 114/114/114 116/116/116 115/115/115 
f 115/115/115 116/116/116 116/116/116 
f 116/116/116 117/117/117 116/116/116 
f 116/116/116 117/117/117 117/117/117 
f 117/117/117 118/118/118 117/117/117 
f 117/117/117 118/118/118 119/119/119 
f 118/118/118 120/120/120 119/119/119 
f 119/119/119 120/120/120 120/120/120 
f 120/120/120 121/121/121 120/120/120 
f 120/120/120 121/121/121 121/121/121 
f 121/121/121 122/122/122 121/121/121 
f 121/121/121 122/122/122 123/123/123 
f 122/122/122 124/124/124 123/123/123 
f 123/123/123 124/124/124 124/124/124 
f 124/124/124 125/125/125 124/124/124 
f 124/124/124 125/125/125 125/125/125 
f 125/125/125 126/126/126 125/125/125 
f 125/125/125 126/126/126 127/127/127 
f 126/126/126 128/128/128 127/127/127 
f 127/127/127 128/128/128 128/128/128 
f 128/128/128 129/129/129 128/128/128 
f 128/128/128 129/129/129 129/129/129 
f 129/129/129 130/130/130 129/129/129 
f 129/129/129 130/130/130 131/131/131 
f 130/130/130 132/132/132 131/131/131 
f 131/131/131 132/132/132 132/132/132 
f 132/132/132 133/133/133 132/132/132 
f 132/132/132 133/133/133 133/133/133 
f 133/133/133 134/134/134 133/133/133 
f 133/133/133 134/134/134 135/135/135 
f 134/134/134 136/136/136 135/135/135 
f 135/135/135 136/136/136 136/136/136 
f 136/136/136 137/137/137 136/136/136 
f 136/136/136 137/137/137 137/137/137 
f 137/137/137 138/138/138 137/137/137 
f 137/137/137 138/138/138 139/139/139 
f 138/138/138 140/140/140 139/139/139 
f 139/139/139 140/140/140 140/140/140 
f 140/140/140 141/141/141 140/140/140 
f 140/140/140 141/141/141 141/141/141 
f 141/141/141 142/142/142 141/141/141 
f 141/141/141 142/142/142 143/143/143 
f 142/142/142 144/144/144 143/143/143 
f 143/143/143 144/144/144 144/144/144 
f 144/144/144 145/145/145 144/144/144 
f 144/144/144 145/145/145 145/145/145 
f 145/145/145 146/146/146 145/145/145 
f 145/145/145 146/146/146 147/147/147 
f 146/146/146 148/148/148 147/147/147 
f 147/147/147 148/148/148 148/148/148 
f 148/148/148 149/149/149 148/148/148 
f 148/148/148 149/149/149 149/149/149 
f 149/149/149 150/150/150 149/149/149 
f 149/149/149 150/150/150 151/151/151 
f 150/150/150 152/152/152 151/151/151 
f 151/151/151 152/152/152 152/152/152 
f 152/152/152 153/153/153 152/152/152 
f 152/152/152 153/153/153 153/153/153 
f 153/153/153 154/154/154 153/153/153 
f 153/153/153 154/154/154 155/155/155 
f 154/154/154 156/156/156 155/155/155 
f 155/155/155 156/156/156 156/156/156 
f 156/156/156 157/157/157 156/156/156 
f 156/156/156 157/157/157 157/157/157 
f 157/157/157 158/158/158 157/157/157 
f 157/157/157 158/158/158 159/159/159 
f 158/158/158 160/160/160 159/159/159 
f 159/159/159 160/160/160 160/160/160 
f 160/160/160 161/161/161 160/160/160 
f 160/160/160 161/161/161 161/161/161 
f 161/161/161 162/162/162 161/161/161 
f 161/161/161 162/162/162 163/163/163 
f 162/162/162 164/164/164 163/163/163 
f 163/163/163 164/164/164 164/164/164 
f 164/164/164 165/165/165 164/164/164 
f 164/164/164 165/165/165 165/165/165 
f 165/165/165 166/166/166 165/165/165 
f 165/165/165 166/166/166 167/167/167 
f 166/166/166 168/168/168 167/167/167 
f 167/167/167 168/168/168 168/168/168 
f 168/168/168 169/169/169 168/168/168 
f 168/168/168 169/169/169 169/169/169 
f 169/169/169 170/170/170 169/169/169 
f 169/169/169 170/170/170 171/171/171 
f 170/170/170 172/172/172 171/171/171 
f 171/171/171 172/172/172 172/172/172 
f 172/172/172 173/173/173 172/172/172 
f 172/172/172 173/173/173 173/173/173 
f 173/173/173 174/174/174 173/173/173 
f 173/173/173 174/174/174 175/175/175 
f 174/174/174 176/176/176 175/175/175 
f 175/175/175 176/176/176 176/176/176 
f 176/176/176 177/177/177 176/176/176 
f 176/176/176 177/177/177 177/177/177 
f 177/177/177 178/178/178 177/177/177 
f 177/177/177 178/178/178 179/179/179 
f 178/178/178 180/180/180 179/179/179 
f 179/179/179 180/180/180 180/180/180 
f 180/180/180 181/181/181 180/180/180 
f 180/180/180 181/181/181 181/181/181 
f 181/181/181 182/182/182 181/181/181 
f 181/181/181 182/182/182 183/183/183 
f 182/182/182 184/184/184 183/183/183 
f 183/183/183 184/184/184 184/184/184 
f 184/184/184 185/185/185 184/184/184 
f 184/184/184 185/185/185 185/185/185 
f 185/185/185 186/186/186 185/185/185 
f 185/185/185 186/186/186 187/187/187 
f 186/186/186 188/188/188 187/187/187 
f 187/187/187 188/188/188 188/188/188 
f 188/188/188 189/189/189 188/188/188 
f 188/188/188 189/189/189 189/189/189 
f 189/189/189 190/190/190 189/189/189 
f 189/189/189 190/190/190 191/191/191 
f 190/190/190 192/192/192 191/191/191 
f 191/191/191 192/192/192 192/192/192 
f 192/192/192 193/193/193 192/192/192 
f 192/192/192 193/193/193 193/193/193 
f 193/193/193 194/194/194 193/193/193 
f 193/193/193 194/194/194 195/195/195 
f 194/194/194 196/196/196 195/195/195 
f 195/195/195 196/196/196 196/196/196 
f 196/196/196 197/197/197 196/196/196 
f 196/196/196 197/197/197 197/197/197 
f 197/197/197 198/198/198 197/197/197 
f 197/197/197 198/198/198 199/199/199 
f 198/198/198 200/200/200 199/199/199 
f 199/199/199 200/200/200 200/200/200 
f 200/200/200 201/201/201 200/200/200 
f 200/200/200 201/201/201 201/201/201 
f 201/201/201 202/202/202 201/201/201 
f 201/201/201 202/202/202 203/203/203 
f 202/202/202 204/204/204 203/203/203 
f 203/203/203 204/204/204 205/205/205 
f 204/204/204 206/206/206 205/205/205 
f 205/205/205 206/206/206 206/206/206 
f 206/206/206 207/207/207 206/206/206 
f 206/206/206 207/207/207 207/207/207 
f 207/207/207 208/208/208 207/207/207 
f 207/207/207 208/208/208 209/209/209 
f 208/208/208 210/210/210 209/209/209 
f 209/209/209 210/210/210 210/210/210 
f 210/210/210 211/211/211 210/210/210 
f 210/210/210 211/211/211 211/211/211 
f 211/211/211 212/212/212 211/211/211 
f 211/211/211 212/212/212 213/213/213 
f 212/212/212 214/214/214 213/213/213 
f 213/213/213 214/214/214 214/214/214 
f 214/214/214 215/215/215 214/214/214 
f 214/214/214 215/215/215 215/215/215 
f 215/215/215 216/216/216 215/215/215 
f 215/215/215 216/216/216 217/217/217 
f 216/216/216 218/218/218 217/217/217 
f 217/217/217 218/218/218 218/218/218 
f 218/218/218 219/219/219 218/218/218 
f 218/218/218 219/219/219 219/219/219 
f 219/219/219 220/220/220 219/219/219 
f 219/219/219 220/220/220 221/221/221 
f 220/220/220 222/222/222 221/221/221 
f 221/221/221 222/222/222 222/222/222 
f 222/222/222 223/223/223 222/222/222 
f 222/222/222 223/223/223 223/223/223 
f 223/223/223 224/224/224 223/223/223 
f 223/223/223 224/224/224 225/225/225 
f 224/224/224 226/226/226 225/225/225 
f 225/225/225 226/226/226 226/226/226 
f 226/226/226 227/227/227 226/226/226 
f 226/226/226 227/227/227 227/227/227 
f 227/227/227 228/228/228 227/227/227 
f 227/227/227 228/228/228 229/229/229 
f 228/228/228 230/230/230 229/229/229 
f 229/229/229 230/230/230 230/230/230 
f 230/230/230 231/231/231 230/230/230 
f 230/230/230 231/231/231 231/231/231 
f 231/231/231 232/232/232 231/231/231 
f 231/231/231 232/232/232 233/233/233 
f 232/232/232 234/234/234 233/233/233 
f 233/233/233 234/234/234 234/234/234 
f 234/234/234 235/235/235 234/234/234 
f 234/234/234 235/235/235 235/235/235 
f 235/235/235 236/236/236 235/235/235 
f 235/235/235 236/236/236 237/237/237 
f 236/236/236 238/238/238 237/237/237 
f 237/237/237 238/238/238 238/238/238 
f 238/238/238 239/239/239 238/238/238 
f 238/238/238 239/239/239 239/239/239 
f 239/239/239 240/240/240 239/239/239 
f 239/239/239 240/240/240 241/241/241 
f 240/240/240 242/242/242 241/241/241 
f 241/241/241 242/242/242 242/242/242 
f 242/242/242 243/243/243 242/242/242 
f 242/242/242 243/243/243 243/243/243 
f 243/243/243 244/244/244 243/243/243 
f 243/243/243 244/244/244 245/245/245 
f 244/244/244 246/246/246 245/245/245 
f 245/245/245 246/246/246 246/246/246 
f 246/246/246 247/247/247 246/246/246 
f 246/246/246 247/247/247 247/247/247 
f 247/247/247 248/248/248 247/247/247 
f 247/247/247 248/248/248 249/249/249 
f 248/248/248 250/250/250 249/249/249 
f 249/249/249 250/250/250 250/250/250 
f 250/250/250 251/251/251 250/250/250 
f 250/250/250 251/251/251 251/251/251 
f 251/251/251 252/252/252 251/251/251 
f 251/251/251 252/252/252 253/253/253 
f 252/252/252 254/254/254 253/253/253 
f 253/253/253 254/254/254 254/254/254 
f 254/254/254 255/255/255 254/254/254 
f 254/254/254 255/255/255 255/255/255 
f 255/255/255 256/256/256 255/255/255 
f 255/255/255 256/256/256 257/257/257 
f 256/256/256 258/258/258 257/257/257 
f 257/257/257 258/258/258 258/258/258 
f 258/258/258 259/259/259 258/258/258 
f 258/258/258 259/259/259 259/259/259 
f 259/259/259 260/260/260 259/259/259 
f 259/259/259 260/260/260 261/261/261 
f 260/260/260 262/262/262 261/261/261 

